<svg width="461" height="106" viewBox="0 0 461 106" fill="none" xmlns="http://www.w3.org/2000/svg">
<g clip-path="url(#clip0_135_3)">
<path d="M35.1978 91.8627L24.4297 102.628L3.63037 81.829L14.3192 71.1378C14.8917 72.3727 15.5298 73.5793 16.2293 74.7641C17.8338 77.4709 29.113 88.568 31.7292 90.0763C32.863 90.7265 34.0227 91.3233 35.1978 91.8627Z" fill="#4F7693"/>
<path d="M95.7147 52.9805C95.7147 76.5788 76.5845 95.709 52.9862 95.709C29.3887 95.709 10.2585 76.5788 10.2585 52.9805C10.2585 29.3822 29.3887 10.2529 52.9862 10.2529C76.5845 10.2529 95.7147 29.3822 95.7147 52.9805Z" fill="#FECBAA"/>
<path d="M83.1998 22.7678C80.4615 20.0294 77.4434 17.7432 74.2384 15.9042C84.8261 32.44 82.8965 54.6724 68.4416 69.1273C54.4937 83.0752 33.3021 85.3615 16.9766 75.9909C18.611 78.544 20.5414 80.9621 22.7734 83.1941C39.4596 99.8803 66.5136 99.8803 83.1998 83.1941C99.886 66.5079 99.886 39.454 83.1998 22.7678Z" fill="#FFAE85"/>
<path d="M4.63242 73.2947L12.2157 65.7121C12.7875 67.5552 15.5299 73.5793 16.2294 74.7633L12.1794 78.8133C10.4358 80.5569 10.4358 83.3834 12.1794 85.127L21.2717 94.2193C23.0153 95.9629 25.8418 95.9629 27.5854 94.2193L38.6389 83.1658C40.4423 81.3624 43.3674 81.3624 45.1709 83.1658C46.9751 84.9701 46.9751 87.8952 45.1709 89.6986L33.104 101.766C27.7277 107.142 19.1715 107.399 13.4887 102.534C13.2064 102.289 12.9298 102.034 12.6622 101.766L4.63323 93.7365C4.33724 93.4414 4.055 93.1332 3.79136 92.8178C-0.998659 87.1399 -0.715609 78.6435 4.63242 73.2947Z" fill="#FF84A7"/>
<path d="M102.379 24.1733L91.6913 34.8621C91.1171 33.628 90.4783 32.4214 89.7803 31.2358C88.1758 28.5299 86.2487 25.9622 83.9932 23.5894C83.7344 23.3136 83.4691 23.0395 83.1974 22.7678C83.0906 22.6586 82.9815 22.5502 82.8699 22.4451C82.4873 22.0706 82.0975 21.7027 81.7045 21.3452C79.3892 19.2385 76.8967 17.4327 74.2805 15.9244C73.1443 15.2734 71.987 14.6774 70.8103 14.1396L81.5783 3.37234L102.379 24.1733Z" fill="#4F7693"/>
<path d="M101.376 32.7052L93.7931 40.2886C93.2214 38.4455 92.5194 36.6299 91.6905 34.8613C91.1163 33.628 90.479 32.4206 89.7795 31.2366L93.8295 27.1866C95.5723 25.4438 95.5723 22.6165 93.8295 20.8729L84.7372 11.7814C82.9936 10.0378 80.1671 10.0378 78.4235 11.7814L67.37 22.8341C65.5658 24.6383 62.6414 24.6383 60.8372 22.8341C59.0338 21.0306 59.0338 18.1055 60.8372 16.3013L72.9048 4.23443C78.2804 -1.1419 86.8374 -1.39907 92.5194 3.46696C92.8025 3.7112 93.079 3.96675 93.3467 4.23443L101.376 12.2634C101.671 12.5593 101.954 12.8675 102.218 13.1821C107.007 18.86 106.724 27.3572 101.376 32.7052Z" fill="#FF84A7"/>
<path d="M60.8374 21.6097L72.905 9.54203C78.2813 4.16569 86.8376 3.90933 92.5196 8.77456C92.8026 9.0196 93.0792 9.27435 93.3469 9.54203L101.376 17.5718C101.672 17.8669 101.954 18.1751 102.218 18.4897C103.872 20.4508 104.92 22.7475 105.364 25.1349C106.133 20.9934 105.086 16.5827 102.218 13.1821C101.954 12.8675 101.672 12.5593 101.376 12.2634L93.3469 4.23443C93.0792 3.96675 92.8026 3.7112 92.5196 3.46696C86.8376 -1.39907 78.2813 -1.1419 72.905 4.23443L60.8374 16.3013C59.2256 17.9138 59.0582 20.4192 60.3287 22.2219C60.4791 22.0076 60.6457 21.8013 60.8374 21.6097Z" fill="#EF6085"/>
<path d="M94.2558 26.6844C94.1264 26.859 93.9873 27.0289 93.8296 27.1866L89.7795 31.2366C90.45 32.3712 91.0614 33.5277 91.6169 34.7076L93.8296 32.495C95.4147 30.9099 95.553 28.432 94.2558 26.6844Z" fill="#EF6085"/>
<path d="M85.9471 21.6364L84.0086 23.5765C84.0038 23.5813 83.9981 23.5854 83.9933 23.5894C83.7345 23.3136 83.4692 23.0395 83.1975 22.7678C83.0907 22.6586 82.9816 22.5502 82.8699 22.4451C82.4874 22.0706 82.0976 21.7027 81.7046 21.3452C81.7151 21.3323 81.7256 21.3202 81.7386 21.3072L83.6787 19.3687C84.3062 18.742 85.3195 18.742 85.9471 19.3687C86.5739 19.9955 86.5739 21.0112 85.9471 21.6364Z" fill="#2F5066"/>
<path d="M90.8074 17.8524L87.8411 14.886C85.9794 13.0244 85.9794 10.0054 87.8411 8.14376L93.6606 2.32506C95.5222 0.463395 98.5404 0.463395 100.402 2.32506L103.368 5.29061C105.23 7.15228 105.23 10.1712 103.368 12.0329L97.5489 17.8516C95.6872 19.714 92.6691 19.714 90.8074 17.8524Z" fill="#FECBAA"/>
<path d="M94.0486 14.6102L91.0823 11.6447C89.2206 9.78303 89.2206 6.76409 91.0823 4.90243L93.6605 2.32506C95.5221 0.463395 98.5403 0.463395 100.402 2.32506L103.368 5.29142C105.23 7.15308 105.23 10.1712 103.368 12.0329L100.79 14.6102C98.9284 16.4719 95.9103 16.4719 94.0486 14.6102Z" fill="#C97F4C"/>
<path d="M11.2856 83.8379L10.8836 84.2406C9.14003 85.9842 9.14003 88.8107 10.8836 90.5543L19.976 99.6466C21.7188 101.389 24.5461 101.389 26.2896 99.6466L37.3423 88.5931C39.1466 86.7889 42.0709 86.7889 43.8751 88.5931C44.2997 89.0177 44.62 89.5053 44.8448 90.0245L45.1707 89.6986C46.975 87.8952 46.975 84.9701 45.1707 83.1658C43.3673 81.3624 40.4422 81.3624 38.6379 83.1658L27.5852 94.2193C25.8416 95.9629 23.0152 95.9629 21.2716 94.2193L12.1792 85.127C11.795 84.7428 11.5007 84.3045 11.2856 83.8379Z" fill="#EF6085"/>
<path d="M3.3369 78.7219L6.68498 75.3747C8.61053 73.4483 11.8454 74.046 12.997 76.5133C13.0059 76.5311 13.014 76.5489 13.0221 76.5667C13.1701 76.8837 13.3221 77.1999 13.479 77.5137L16.2294 74.7641C15.5299 73.5801 14.8918 72.3719 14.3176 71.1394C13.4887 69.3708 12.7875 67.5552 12.2158 65.7121L4.63246 73.2947C1.95723 75.9699 0.549255 79.4328 0.410156 82.937C1.10727 81.4101 2.08015 79.9787 3.3369 78.7219Z" fill="#EF6085"/>
<path d="M24.3036 84.6547C24.2931 84.6676 24.2826 84.6806 24.2689 84.6935L22.3304 86.632C22.0166 86.9466 21.6058 87.1027 21.1949 87.1027C20.7865 87.1027 20.3757 86.9466 20.0611 86.632C19.4344 86.0052 19.4344 84.9911 20.0611 84.3643L21.9996 82.4234C22.0037 82.4194 22.0101 82.4153 22.0142 82.4105C22.273 82.6871 22.5382 82.9604 22.81 83.2321C22.9191 83.3413 23.0283 83.4505 23.1375 83.5556C23.5208 83.9301 23.9098 84.298 24.3036 84.6547Z" fill="#2F5066"/>
<path d="M15.2013 88.1483L18.1677 91.1147C20.0294 92.9763 20.0294 95.9945 18.1677 97.8561L12.3482 103.676C10.4865 105.537 7.46761 105.537 5.60675 103.676L2.64039 100.709C0.778725 98.8476 0.778725 95.8295 2.64039 93.9678L8.45909 88.1483C10.3208 86.2867 13.3397 86.2867 15.2013 88.1483Z" fill="#FECBAA"/>
<path d="M11.9988 91.3508L14.9644 94.3164C16.8261 96.178 16.8261 99.197 14.9644 101.059L12.3482 103.676C10.4865 105.537 7.46761 105.537 5.60595 103.676L2.64039 100.709C0.778725 98.8476 0.778725 95.8287 2.64039 93.9678L5.25658 91.3508C7.11905 89.4892 10.1372 89.4892 11.9988 91.3508Z" fill="#C97F4C"/>
<path d="M102.628 81.5702L81.8282 102.372L71.1394 91.6832C72.3719 91.1074 73.5785 90.4701 74.7641 89.7706C77.4725 88.1677 80.0393 86.2406 82.4121 83.9851C82.6879 83.7263 82.962 83.4594 83.2313 83.1893C83.3405 83.0809 83.4497 82.9734 83.5564 82.8626C83.9308 82.4792 84.2988 82.0902 84.6538 81.6964C86.7614 79.3819 88.5672 76.8894 90.0755 74.2724C90.7257 73.137 91.3225 71.9789 91.8619 70.8022L102.628 81.5702Z" fill="#4F7693"/>
<path d="M73.2947 101.368L65.7114 93.7843C67.5553 93.2125 69.3701 92.5113 71.1387 91.6824C72.372 91.1082 73.5794 90.4701 74.7634 89.7714L78.8134 93.8207C80.557 95.5642 83.3835 95.5642 85.1271 93.8207L94.2194 84.7291C95.9622 82.9855 95.9622 80.1582 94.2194 78.4146L83.1659 67.3619C81.3625 65.5577 81.3625 62.6326 83.1659 60.8291C84.9702 59.0249 87.8945 59.0249 89.6987 60.8291L101.766 72.896C107.142 78.2723 107.399 86.8285 102.533 92.5113C102.289 92.7944 102.034 93.0702 101.766 93.3378L93.7366 101.368C93.4415 101.663 93.1325 101.946 92.8179 102.209C87.1399 106.999 78.6436 106.716 73.2947 101.368Z" fill="#83D9FF"/>
<path d="M83.166 66.3801C84.9702 64.5759 87.8945 64.5759 89.6988 66.3801L101.766 78.447C103.881 80.5626 105.2 83.1707 105.73 85.9017C106.621 81.3389 105.3 76.43 101.766 72.896L89.6988 60.8291C87.8945 59.0249 84.9702 59.0249 83.166 60.8291C81.517 62.4781 81.3803 65.0611 82.7463 66.871C82.874 66.7012 83.0115 66.5346 83.166 66.3801Z" fill="#5FC9ED"/>
<path d="M69.9264 97.7753C72.9292 96.394 76.4762 97.0345 78.8134 99.3717C80.557 101.115 83.3835 101.115 85.1271 99.3717L94.2194 90.2793C95.8409 88.6578 95.9517 86.0998 94.5567 84.3474C94.4515 84.4792 94.3407 84.607 94.2194 84.7291L85.1271 93.8206C83.3835 95.5642 80.557 95.5642 78.8134 93.8206L74.7634 89.7714C73.5794 90.4701 72.372 91.1082 71.1387 91.6824C69.3701 92.5113 67.5553 93.2125 65.7114 93.7843L69.772 97.8448C69.8068 97.8294 69.8593 97.806 69.9264 97.7753Z" fill="#5FC9ED"/>
<path d="M86.6336 85.9389C86.319 86.2511 85.9082 86.4096 85.4974 86.4096C85.0865 86.4096 84.6757 86.2511 84.3635 85.9389L82.425 84.0004C82.421 83.9964 82.417 83.9899 82.4121 83.9851C82.6879 83.7263 82.962 83.4594 83.2313 83.1893C83.3405 83.0809 83.4497 82.9733 83.5572 82.8626C83.9309 82.4792 84.2997 82.0902 84.6547 81.6964C84.6676 81.7069 84.6797 81.7174 84.6927 81.7304L86.6336 83.6688C87.2579 84.2956 87.2579 85.3122 86.6336 85.9389Z" fill="#2F5066"/>
<path d="M88.1484 90.7993L91.114 87.8329C92.9757 85.9713 95.9946 85.9713 97.8563 87.8329L103.675 93.6524C105.537 95.5141 105.537 98.5322 103.675 100.394L100.709 103.36C98.8477 105.222 95.8288 105.222 93.9671 103.36L88.1484 97.5407C86.2868 95.6791 86.2868 92.6609 88.1484 90.7993Z" fill="#FECBAA"/>
<path d="M91.3889 94.039L94.3545 91.0734C96.2161 89.2118 99.2351 89.2118 101.097 91.0734L103.675 93.6516C105.537 95.5133 105.537 98.5322 103.675 100.394L100.709 103.359C98.8477 105.221 95.8288 105.221 93.9671 103.359L91.3889 100.781C89.5273 98.9196 89.5273 95.9007 91.3889 94.039Z" fill="#C97F4C"/>
<path d="M34.8613 14.3086C33.6272 14.8844 32.4206 15.5217 31.2375 16.2212C28.5291 17.8233 25.9614 19.7512 23.5895 22.0059C23.3113 22.2647 23.0395 22.53 22.7678 22.8017C22.6586 22.9109 22.5519 23.0176 22.4443 23.1293C22.0699 23.5142 21.7019 23.904 21.3469 24.297C19.2378 26.6124 17.4319 29.1048 15.9236 31.7186C15.2726 32.8549 14.6758 34.0121 14.1388 35.1888L3.37158 24.4216L24.1725 3.61981L34.8613 14.3086Z" fill="#4F7693"/>
<path d="M32.7053 4.62424L40.2886 12.2076C38.4447 12.7793 36.63 13.4805 34.8613 14.3094C33.628 14.8836 32.4206 15.5217 31.2367 16.2204L27.1866 12.1712C25.443 10.4276 22.6166 10.4276 20.873 12.1712L11.7806 21.2627C10.0378 23.0063 10.0378 25.8336 11.7806 27.5772L22.8341 38.6299C24.6384 40.4341 24.6384 43.3593 22.8341 45.1627C21.0307 46.9669 18.1056 46.9669 16.3013 45.1627L4.23448 33.0959C-1.14186 27.7195 -1.39903 19.1633 3.46701 13.4805C3.71124 13.1974 3.96599 12.9217 4.23448 12.654L12.2634 4.62424C12.5594 4.32906 12.8675 4.04601 13.1821 3.78237C18.8601 -1.00685 27.3565 -0.724604 32.7053 4.62424Z" fill="#83D9FF"/>
<path d="M11.7806 27.5772C11.5986 27.3944 11.4393 27.1979 11.2945 26.9941C10.0613 28.7369 10.2198 31.163 11.7806 32.7238L22.8341 43.7774C23.05 43.9933 23.2385 44.2262 23.4026 44.4704C24.6108 42.6743 24.4224 40.2182 22.8341 38.6299L11.7806 27.5772Z" fill="#5FC9ED"/>
<path d="M3.46702 18.6279C3.71126 18.3449 3.966 18.0683 4.2345 17.8006L12.2634 9.77171C12.5594 9.47572 12.8675 9.19348 13.1821 8.92984C18.8601 4.13982 27.3573 4.42287 32.7053 9.77171L36.5135 13.5791C37.7541 13.0608 39.0141 12.6022 40.2886 12.2076L32.7053 4.62424C27.3565 -0.724604 18.8601 -1.00685 13.1821 3.78237C12.8675 4.04601 12.5594 4.32906 12.2634 4.62424L4.2345 12.6532C3.966 12.9208 3.71126 13.1974 3.46702 13.4805C0.559694 16.8755 -0.517514 21.2959 0.232165 25.4519C0.673723 22.9966 1.74931 20.6328 3.46702 18.6279Z" fill="#5FC9ED"/>
<path d="M23.5887 22.0059C23.3105 22.2647 23.0388 22.53 22.767 22.8017C22.6579 22.9109 22.5511 23.0177 22.4444 23.1293C22.0699 23.5142 21.702 23.904 21.3469 24.297C21.3316 24.2865 21.3186 24.2736 21.3065 24.2606L19.368 22.3222C18.7413 21.6954 18.7413 20.6797 19.368 20.0529C19.9948 19.4253 21.0105 19.4253 21.6381 20.0529L23.5766 21.9914C23.5806 21.9954 23.5847 22.0019 23.5887 22.0059Z" fill="#2F5066"/>
<path d="M17.8517 15.1925L14.8854 18.1589C13.0237 20.0205 10.0056 20.0205 8.14391 18.1589L2.3252 12.3402C0.46354 10.4785 0.46354 7.45959 2.3252 5.59793L5.29076 2.63237C7.15242 0.770707 10.1714 0.770707 12.033 2.63237L17.8517 8.45107C19.7134 10.3127 19.7134 13.3309 17.8517 15.1925Z" fill="#FECBAA"/>
<path d="M14.1252 11.466L11.1588 14.4323C9.29713 16.294 6.27901 16.294 4.41735 14.4323L2.3252 12.3402C0.46354 10.4785 0.46354 7.45959 2.3252 5.59793L5.29076 2.63237C7.15242 0.770707 10.1714 0.770707 12.033 2.63237L14.1252 4.72451C15.9868 6.58618 15.9868 9.6043 14.1252 11.466Z" fill="#C97F4C"/>
<path d="M42.8691 71.5211L35.0197 78.4809C34.4399 78.9945 33.5519 78.9411 33.0384 78.3604L29.9361 74.8611L27.8076 72.4601L24.5388 68.7715C24.0252 68.1925 24.0786 67.3061 24.6585 66.7926L32.5103 59.8336C33.0901 59.3201 33.9757 59.3734 34.4892 59.9533L37.6941 63.5666L39.8227 65.9693L42.9888 69.5398C43.5023 70.1196 43.449 71.0076 42.8691 71.5211Z" fill="white"/>
<path d="M81.9495 39.7661L70.6882 49.7489C70.0072 50.3522 68.9664 50.2899 68.3623 49.609L60.1886 40.3872C59.5845 39.7063 59.6476 38.6655 60.3285 38.0614L71.5899 28.0794C72.2708 27.4761 73.3116 27.5384 73.9149 28.2193L82.0894 37.4411C82.6935 38.122 82.6305 39.1628 81.9495 39.7661Z" fill="white"/>
<path d="M39.8227 65.9693L29.9451 74.8547C29.9426 74.8563 29.9386 74.8587 29.937 74.8611L27.8076 72.4601L37.6836 63.5755C37.6877 63.5731 37.6901 63.569 37.6942 63.5666L39.8227 65.9693Z" fill="#DAE2E8"/>
</g>
<path d="M133.469 52.3516C132.5 52.3516 131.438 52.2109 130.281 51.9297C129.141 51.6484 128.055 51.0625 127.023 50.1719C125.992 49.2812 125.148 47.9453 124.492 46.1641C123.836 44.3672 123.508 41.9688 123.508 38.9688V24.7891C123.508 22.3828 123.727 20.3828 124.164 18.7891C124.617 17.1797 125.203 15.8984 125.922 14.9453C126.656 13.9766 127.461 13.2578 128.336 12.7891C129.227 12.3047 130.109 11.9922 130.984 11.8516C131.875 11.6953 132.695 11.6172 133.445 11.6172C135.508 11.6172 137.141 12 138.344 12.7656C139.547 13.5313 140.406 14.5625 140.922 15.8594C141.453 17.1406 141.719 18.5547 141.719 20.1016C141.719 20.9609 141.648 21.7578 141.508 22.4922C141.383 23.2109 141.234 24.0078 141.062 24.8828H136.375V22.9609C136.375 18.5703 135.344 16.375 133.281 16.375C132.172 16.375 131.32 16.8594 130.727 17.8281C130.148 18.7812 129.859 20.5391 129.859 23.1016V41.1484C129.859 43.6328 130.148 45.3281 130.727 46.2344C131.32 47.1406 132.234 47.5938 133.469 47.5938C134.328 47.5938 135.039 47.2344 135.602 46.5156C136.164 45.7812 136.445 44.6094 136.445 43V39.2031H141.766V42.9062C141.766 46.1094 141.055 48.4844 139.633 50.0312C138.211 51.5781 136.156 52.3516 133.469 52.3516ZM155.195 52.3516C154.227 52.3516 153.164 52.2109 152.008 51.9297C150.867 51.6484 149.781 51.0625 148.75 50.1719C147.719 49.2812 146.875 47.9453 146.219 46.1641C145.562 44.3672 145.234 41.9688 145.234 38.9688V24.7891C145.234 22.3828 145.453 20.3828 145.891 18.7891C146.344 17.1797 146.93 15.8984 147.648 14.9453C148.383 13.9766 149.188 13.2578 150.062 12.7891C150.953 12.3047 151.844 11.9922 152.734 11.8516C153.625 11.6953 154.445 11.6172 155.195 11.6172C155.914 11.6172 156.711 11.6875 157.586 11.8281C158.477 11.9688 159.359 12.2734 160.234 12.7422C161.109 13.1953 161.906 13.8984 162.625 14.8516C163.359 15.8047 163.945 17.0859 164.383 18.6953C164.836 20.3047 165.062 22.3359 165.062 24.7891V38.9688C165.062 41.9375 164.719 44.3125 164.031 46.0938C163.344 47.875 162.477 49.2188 161.43 50.125C160.383 51.0156 159.297 51.6094 158.172 51.9062C157.062 52.2031 156.07 52.3516 155.195 52.3516ZM155.195 47.5938C156.398 47.5938 157.289 47.1406 157.867 46.2344C158.445 45.3281 158.734 43.6328 158.734 41.1484V23.1016C158.734 20.5391 158.445 18.7812 157.867 17.8281C157.289 16.8594 156.398 16.375 155.195 16.375C153.961 16.375 153.047 16.8594 152.453 17.8281C151.875 18.7812 151.586 20.5391 151.586 23.1016V41.1484C151.586 43.6328 151.875 45.3281 152.453 46.2344C153.047 47.1406 153.961 47.5938 155.195 47.5938ZM171.039 11.9688H175.844L185.617 38.2891H185.758C185.695 37.4609 185.609 36.5391 185.5 35.5234C185.406 34.4922 185.32 33.2578 185.242 31.8203C185.164 30.3828 185.125 28.6328 185.125 26.5703V11.9688H190.516V52H185.664L175.938 26.3828H175.75C175.828 27.3203 175.914 28.3438 176.008 29.4531C176.102 30.5625 176.188 31.9609 176.266 33.6484C176.344 35.3359 176.383 37.5312 176.383 40.2344V52H171.039V11.9688ZM197.148 11.9688H212.453V16.9375H203.219V28.7266H210.461V33.5078H203.219V52H197.148V11.9688ZM215.711 11.9688H231.016V16.75H221.781V28.7266H229.023V33.5078H221.781V47.2188H231.016V52H215.711V11.9688ZM234.648 11.9688H241.234C242.156 11.9688 243.172 12.0234 244.281 12.1328C245.391 12.2422 246.492 12.4922 247.586 12.8828C248.68 13.2578 249.68 13.8594 250.586 14.6875C251.492 15.5 252.219 16.6172 252.766 18.0391C253.328 19.4453 253.609 21.2344 253.609 23.4062V24.4141C253.609 30.4141 251.805 34.2734 248.195 35.9922L254.781 52H248.312L242.805 37.0234H240.719V52H234.648V11.9688ZM241.516 32.6406C243.734 32.6406 245.258 32.125 246.086 31.0938C246.93 30.0625 247.352 28.2031 247.352 25.5156V22.3516C247.352 20.2891 246.953 18.7734 246.156 17.8047C245.375 16.8359 243.828 16.3516 241.516 16.3516H240.719V32.6406H241.516ZM259.398 11.9688H274.703V16.75H265.469V28.7266H272.711V33.5078H265.469V47.2188H274.703V52H259.398V11.9688ZM278.336 11.9688H283.141L292.914 38.2891H293.055C292.992 37.4609 292.906 36.5391 292.797 35.5234C292.703 34.4922 292.617 33.2578 292.539 31.8203C292.461 30.3828 292.422 28.6328 292.422 26.5703V11.9688H297.812V52H292.961L283.234 26.3828H283.047C283.125 27.3203 283.211 28.3438 283.305 29.4531C283.398 30.5625 283.484 31.9609 283.562 33.6484C283.641 35.3359 283.68 37.5312 283.68 40.2344V52H278.336V11.9688ZM313.797 52.3516C312.828 52.3516 311.766 52.2109 310.609 51.9297C309.469 51.6484 308.383 51.0625 307.352 50.1719C306.32 49.2812 305.477 47.9453 304.82 46.1641C304.164 44.3672 303.836 41.9688 303.836 38.9688V24.7891C303.836 22.3828 304.055 20.3828 304.492 18.7891C304.945 17.1797 305.531 15.8984 306.25 14.9453C306.984 13.9766 307.789 13.2578 308.664 12.7891C309.555 12.3047 310.438 11.9922 311.312 11.8516C312.203 11.6953 313.023 11.6172 313.773 11.6172C315.836 11.6172 317.469 12 318.672 12.7656C319.875 13.5313 320.734 14.5625 321.25 15.8594C321.781 17.1406 322.047 18.5547 322.047 20.1016C322.047 20.9609 321.977 21.7578 321.836 22.4922C321.711 23.2109 321.562 24.0078 321.391 24.8828H316.703V22.9609C316.703 18.5703 315.672 16.375 313.609 16.375C312.5 16.375 311.648 16.8594 311.055 17.8281C310.477 18.7812 310.188 20.5391 310.188 23.1016V41.1484C310.188 43.6328 310.477 45.3281 311.055 46.2344C311.648 47.1406 312.562 47.5938 313.797 47.5938C314.656 47.5938 315.367 47.2344 315.93 46.5156C316.492 45.7812 316.773 44.6094 316.773 43V39.2031H322.094V42.9062C322.094 46.1094 321.383 48.4844 319.961 50.0312C318.539 51.5781 316.484 52.3516 313.797 52.3516ZM326.383 11.9688H341.688V16.75H332.453V28.7266H339.695V33.5078H332.453V47.2188H341.688V52H326.383V11.9688ZM355.961 11.9688H362.547C363.469 11.9688 364.484 12.0234 365.594 12.1328C366.703 12.2422 367.805 12.4922 368.898 12.8828C369.992 13.2578 370.992 13.8594 371.898 14.6875C372.805 15.5 373.531 16.6172 374.078 18.0391C374.641 19.4453 374.922 21.2344 374.922 23.4062V24.4141C374.922 30.4141 373.117 34.2734 369.508 35.9922L376.094 52H369.625L364.117 37.0234H362.031V52H355.961V11.9688ZM362.828 32.6406C365.047 32.6406 366.57 32.125 367.398 31.0938C368.242 30.0625 368.664 28.2031 368.664 25.5156V22.3516C368.664 20.2891 368.266 18.7734 367.469 17.8047C366.688 16.8359 365.141 16.3516 362.828 16.3516H362.031V32.6406H362.828ZM389.898 52.3516C388.93 52.3516 387.867 52.2109 386.711 51.9297C385.57 51.6484 384.484 51.0625 383.453 50.1719C382.422 49.2812 381.578 47.9453 380.922 46.1641C380.266 44.3672 379.938 41.9688 379.938 38.9688V24.7891C379.938 22.3828 380.156 20.3828 380.594 18.7891C381.047 17.1797 381.633 15.8984 382.352 14.9453C383.086 13.9766 383.891 13.2578 384.766 12.7891C385.656 12.3047 386.547 11.9922 387.438 11.8516C388.328 11.6953 389.148 11.6172 389.898 11.6172C390.617 11.6172 391.414 11.6875 392.289 11.8281C393.18 11.9688 394.062 12.2734 394.938 12.7422C395.812 13.1953 396.609 13.8984 397.328 14.8516C398.062 15.8047 398.648 17.0859 399.086 18.6953C399.539 20.3047 399.766 22.3359 399.766 24.7891V38.9688C399.766 41.9375 399.422 44.3125 398.734 46.0938C398.047 47.875 397.18 49.2188 396.133 50.125C395.086 51.0156 394 51.6094 392.875 51.9062C391.766 52.2031 390.773 52.3516 389.898 52.3516ZM389.898 47.5938C391.102 47.5938 391.992 47.1406 392.57 46.2344C393.148 45.3281 393.438 43.6328 393.438 41.1484V23.1016C393.438 20.5391 393.148 18.7812 392.57 17.8281C391.992 16.8594 391.102 16.375 389.898 16.375C388.664 16.375 387.75 16.8594 387.156 17.8281C386.578 18.7812 386.289 20.5391 386.289 23.1016V41.1484C386.289 43.6328 386.578 45.3281 387.156 46.2344C387.75 47.1406 388.664 47.5938 389.898 47.5938ZM415.07 52.3516C414.102 52.3516 413.039 52.2109 411.883 51.9297C410.742 51.6484 409.656 51.0625 408.625 50.1719C407.594 49.2812 406.75 47.9453 406.094 46.1641C405.438 44.3672 405.109 41.9688 405.109 38.9688V24.7891C405.109 22.3828 405.328 20.3828 405.766 18.7891C406.219 17.1797 406.805 15.8984 407.523 14.9453C408.258 13.9766 409.062 13.2578 409.938 12.7891C410.828 12.3047 411.719 11.9922 412.609 11.8516C413.5 11.6953 414.32 11.6172 415.07 11.6172C415.789 11.6172 416.586 11.6875 417.461 11.8281C418.352 11.9688 419.234 12.2734 420.109 12.7422C420.984 13.1953 421.781 13.8984 422.5 14.8516C423.234 15.8047 423.82 17.0859 424.258 18.6953C424.711 20.3047 424.938 22.3359 424.938 24.7891V38.9688C424.938 41.9375 424.594 44.3125 423.906 46.0938C423.219 47.875 422.352 49.2188 421.305 50.125C420.258 51.0156 419.172 51.6094 418.047 51.9062C416.938 52.2031 415.945 52.3516 415.07 52.3516ZM415.07 47.5938C416.273 47.5938 417.164 47.1406 417.742 46.2344C418.32 45.3281 418.609 43.6328 418.609 41.1484V23.1016C418.609 20.5391 418.32 18.7812 417.742 17.8281C417.164 16.8594 416.273 16.375 415.07 16.375C413.836 16.375 412.922 16.8594 412.328 17.8281C411.75 18.7812 411.461 20.5391 411.461 23.1016V41.1484C411.461 43.6328 411.75 45.3281 412.328 46.2344C412.922 47.1406 413.836 47.5938 415.07 47.5938ZM430.914 11.9688H438.438L442.445 28.1641C442.867 29.8672 443.195 31.5078 443.43 33.0859C443.664 34.6484 443.883 36.1094 444.086 37.4688H444.273C444.492 36.1094 444.711 34.6484 444.93 33.0859C445.164 31.5078 445.492 29.8672 445.914 28.1641L449.875 11.9688H457.398V52H451.961V38.7578C451.961 36.0391 451.992 33.4844 452.055 31.0938C452.133 28.7031 452.219 26.6094 452.312 24.8125C452.422 23.0156 452.516 21.6484 452.594 20.7109H452.148L446.102 46.8438H442.258L436.164 20.7109H435.719C435.812 21.6484 435.906 23.0156 436 24.8125C436.094 26.6094 436.172 28.7031 436.234 31.0938C436.312 33.4844 436.352 36.0391 436.352 38.7578V52H430.914V11.9688ZM123.203 65.3125H127.297C128.203 65.3125 129.141 65.3698 130.109 65.4844C131.078 65.599 131.979 65.8542 132.812 66.25C133.646 66.6354 134.318 67.2344 134.828 68.0469C135.349 68.8594 135.609 69.9635 135.609 71.3594V72.6562C135.609 74.0729 135.271 75.2292 134.594 76.125C133.927 77.0104 133.182 77.6042 132.359 77.9062V78.0312C133.568 78.5104 134.484 79.1979 135.109 80.0938C135.734 80.9896 136.047 82.2292 136.047 83.8125V85.1719C136.047 86.6198 135.812 87.7969 135.344 88.7031C134.885 89.599 134.255 90.2865 133.453 90.7656C132.651 91.2448 131.734 91.5729 130.703 91.75C129.672 91.9167 128.589 92 127.453 92H123.203V65.3125ZM127.953 76.7344C129.036 76.7344 129.901 76.4688 130.547 75.9375C131.193 75.3958 131.516 74.5 131.516 73.25V72.1562C131.516 70.9167 131.255 69.9583 130.734 69.2812C130.214 68.6042 129.286 68.2656 127.953 68.2656H127.25V76.7344H127.953ZM128.328 89.0469C129.411 89.0469 130.271 88.7812 130.906 88.25C131.552 87.7083 131.875 86.8125 131.875 85.5625V83.4844C131.875 82.2344 131.615 81.276 131.094 80.6094C130.583 79.9323 129.661 79.5938 128.328 79.5938H127.25V89.0469H128.328ZM156.101 92.2344C155.455 92.2344 154.747 92.1406 153.976 91.9531C153.215 91.7656 152.492 91.375 151.804 90.7812C151.117 90.1875 150.554 89.2969 150.117 88.1094C149.679 86.9115 149.46 85.3125 149.46 83.3125V73.8594C149.46 72.2552 149.606 70.9219 149.898 69.8594C150.2 68.7865 150.59 67.9323 151.07 67.2969C151.559 66.651 152.096 66.1719 152.679 65.8594C153.273 65.5365 153.867 65.3281 154.46 65.2344C155.054 65.1302 155.601 65.0781 156.101 65.0781C156.58 65.0781 157.111 65.125 157.695 65.2188C158.288 65.3125 158.877 65.5156 159.46 65.8281C160.044 66.1302 160.575 66.599 161.054 67.2344C161.544 67.8698 161.934 68.724 162.226 69.7969C162.528 70.8698 162.679 72.224 162.679 73.8594V83.3125C162.679 85.2917 162.45 86.875 161.992 88.0625C161.533 89.25 160.955 90.1458 160.257 90.75C159.559 91.3438 158.835 91.7396 158.085 91.9375C157.346 92.1354 156.684 92.2344 156.101 92.2344ZM156.101 89.0625C156.903 89.0625 157.497 88.7604 157.882 88.1562C158.268 87.5521 158.46 86.4219 158.46 84.7656V72.7344C158.46 71.026 158.268 69.8542 157.882 69.2188C157.497 68.5729 156.903 68.25 156.101 68.25C155.278 68.25 154.669 68.5729 154.273 69.2188C153.887 69.8542 153.695 71.026 153.695 72.7344V84.7656C153.695 86.4219 153.887 87.5521 154.273 88.1562C154.669 88.7604 155.278 89.0625 156.101 89.0625ZM183.186 92.2344C182.54 92.2344 181.832 92.1406 181.061 91.9531C180.301 91.7656 179.577 91.375 178.889 90.7812C178.202 90.1875 177.639 89.2969 177.202 88.1094C176.764 86.9115 176.546 85.3125 176.546 83.3125V73.8594C176.546 72.2552 176.691 70.9219 176.983 69.8594C177.285 68.7865 177.676 67.9323 178.155 67.2969C178.644 66.651 179.181 66.1719 179.764 65.8594C180.358 65.5365 180.952 65.3281 181.546 65.2344C182.139 65.1302 182.686 65.0781 183.186 65.0781C183.665 65.0781 184.197 65.125 184.78 65.2188C185.374 65.3125 185.962 65.5156 186.546 65.8281C187.129 66.1302 187.66 66.599 188.139 67.2344C188.629 67.8698 189.019 68.724 189.311 69.7969C189.613 70.8698 189.764 72.224 189.764 73.8594V83.3125C189.764 85.2917 189.535 86.875 189.077 88.0625C188.618 89.25 188.04 90.1458 187.342 90.75C186.644 91.3438 185.921 91.7396 185.171 91.9375C184.431 92.1354 183.769 92.2344 183.186 92.2344ZM183.186 89.0625C183.988 89.0625 184.582 88.7604 184.967 88.1562C185.353 87.5521 185.546 86.4219 185.546 84.7656V72.7344C185.546 71.026 185.353 69.8542 184.967 69.2188C184.582 68.5729 183.988 68.25 183.186 68.25C182.363 68.25 181.754 68.5729 181.358 69.2188C180.973 69.8542 180.78 71.026 180.78 72.7344V84.7656C180.78 86.4219 180.973 87.5521 181.358 88.1562C181.754 88.7604 182.363 89.0625 183.186 89.0625ZM204.053 65.3125H208.1V76.9688H208.225L212.85 65.3125H216.881L211.74 77.8281L217.459 92H213.131L208.225 79.2969H208.1V92H204.053V65.3125ZM229.982 65.3125H234.029V92H229.982V65.3125ZM248.754 65.3125H251.957L258.473 82.8594H258.567C258.525 82.3073 258.468 81.6927 258.395 81.0156C258.332 80.3281 258.275 79.5052 258.223 78.5469C258.171 77.5885 258.145 76.4219 258.145 75.0469V65.3125H261.739V92H258.504L252.02 74.9219H251.895C251.947 75.5469 252.004 76.2292 252.067 76.9688C252.129 77.7083 252.187 78.6406 252.239 79.7656C252.291 80.8906 252.317 82.3542 252.317 84.1562V92H248.754V65.3125ZM282.027 92.25C281.652 92.25 281.204 92.1927 280.683 92.0781C280.173 91.9635 279.647 91.7396 279.105 91.4062C278.574 91.0729 278.074 90.5781 277.605 89.9219C277.147 89.2656 276.772 88.401 276.48 87.3281C276.199 86.2552 276.058 84.9167 276.058 83.3125V73.8594C276.058 72.2552 276.209 70.9219 276.512 69.8594C276.814 68.7865 277.209 67.9323 277.699 67.2969C278.199 66.651 278.751 66.1719 279.355 65.8594C279.959 65.5365 280.564 65.3281 281.168 65.2344C281.772 65.1302 282.329 65.0781 282.84 65.0781C284.288 65.0781 285.433 65.3333 286.277 65.8438C287.131 66.3542 287.741 67.0417 288.105 67.9062C288.48 68.7604 288.668 69.7031 288.668 70.7344C288.668 71.3073 288.626 71.8385 288.543 72.3281C288.459 72.8073 288.36 73.3385 288.246 73.9219H285.121V72.6406C285.121 69.7135 284.324 68.25 282.73 68.25C281.876 68.25 281.256 68.5729 280.871 69.2188C280.485 69.8542 280.293 71.026 280.293 72.7344V84.7656C280.293 86.4219 280.491 87.5573 280.887 88.1719C281.282 88.776 281.907 89.0781 282.762 89.0781C283.657 89.0781 284.308 88.6458 284.715 87.7812C285.121 86.9062 285.324 85.8281 285.324 84.5469V81.1406H283.246V78.4844H289.199V92H286.574L286.137 89.4531C285.762 90.1927 285.209 90.8438 284.48 91.4062C283.751 91.9688 282.933 92.25 282.027 92.25ZM319.01 86.5938C319.01 86.0208 319.041 85.4896 319.104 85C319.177 84.5104 319.281 83.9896 319.416 83.4375H322.557V84.625C322.557 86.0625 322.776 87.1667 323.213 87.9375C323.651 88.6979 324.323 89.0781 325.229 89.0781C326.791 89.0781 327.573 88.3125 327.573 86.7812C327.573 86.1875 327.442 85.5625 327.182 84.9062C326.932 84.25 326.437 83.4479 325.698 82.5L321.479 77.2031C320.739 76.2448 320.161 75.2865 319.745 74.3281C319.338 73.3698 319.135 72.3021 319.135 71.125C319.135 69.3542 319.682 67.9062 320.776 66.7812C321.88 65.6458 323.406 65.0781 325.354 65.0781C326.927 65.0781 328.161 65.3646 329.057 65.9375C329.953 66.5 330.583 67.2135 330.948 68.0781C331.323 68.9427 331.51 69.8281 331.51 70.7344C331.51 71.3073 331.463 71.8385 331.37 72.3281C331.286 72.8073 331.187 73.3385 331.073 73.9219H327.948V72.6406C327.948 71.2344 327.724 70.151 327.276 69.3906C326.828 68.6302 326.187 68.25 325.354 68.25C324.593 68.25 324.015 68.4635 323.62 68.8906C323.234 69.3073 323.041 69.8698 323.041 70.5781C323.041 71.1823 323.166 71.7344 323.416 72.2344C323.666 72.724 323.984 73.2292 324.37 73.75L329.073 79.7188C329.937 80.8333 330.593 81.8958 331.041 82.9062C331.5 83.9062 331.729 85.0208 331.729 86.25C331.729 88.0938 331.14 89.5573 329.963 90.6406C328.786 91.7135 327.218 92.25 325.26 92.25C323.656 92.25 322.396 91.9792 321.479 91.4375C320.573 90.8854 319.932 90.1771 319.557 89.3125C319.192 88.4479 319.01 87.5417 319.01 86.5938ZM348.048 82.6406L342.83 65.3125H346.908L350.002 78.1875H350.189L353.283 65.3125H357.345L352.095 82.6406V92H348.048V82.6406ZM368.524 86.5938C368.524 86.0208 368.556 85.4896 368.618 85C368.691 84.5104 368.795 83.9896 368.931 83.4375H372.071V84.625C372.071 86.0625 372.29 87.1667 372.727 87.9375C373.165 88.6979 373.837 89.0781 374.743 89.0781C376.306 89.0781 377.087 88.3125 377.087 86.7812C377.087 86.1875 376.957 85.5625 376.696 84.9062C376.446 84.25 375.951 83.4479 375.212 82.5L370.993 77.2031C370.254 76.2448 369.675 75.2865 369.259 74.3281C368.852 73.3698 368.649 72.3021 368.649 71.125C368.649 69.3542 369.196 67.9062 370.29 66.7812C371.394 65.6458 372.92 65.0781 374.868 65.0781C376.441 65.0781 377.675 65.3646 378.571 65.9375C379.467 66.5 380.097 67.2135 380.462 68.0781C380.837 68.9427 381.024 69.8281 381.024 70.7344C381.024 71.3073 380.977 71.8385 380.884 72.3281C380.8 72.8073 380.701 73.3385 380.587 73.9219H377.462V72.6406C377.462 71.2344 377.238 70.151 376.79 69.3906C376.342 68.6302 375.701 68.25 374.868 68.25C374.108 68.25 373.53 68.4635 373.134 68.8906C372.748 69.3073 372.556 69.8698 372.556 70.5781C372.556 71.1823 372.681 71.7344 372.931 72.2344C373.181 72.724 373.498 73.2292 373.884 73.75L378.587 79.7188C379.451 80.8333 380.108 81.8958 380.556 82.9062C381.014 83.9062 381.243 85.0208 381.243 86.25C381.243 88.0938 380.655 89.5573 379.477 90.6406C378.3 91.7135 376.733 92.25 374.774 92.25C373.17 92.25 371.91 91.9792 370.993 91.4375C370.087 90.8854 369.446 90.1771 369.071 89.3125C368.707 88.4479 368.524 87.5417 368.524 86.5938ZM396.953 68.5H392.656V65.3125H405.281V68.5H401V92H396.953V68.5ZM417.757 65.3125H427.961V68.5H421.804V76.4844H426.632V79.6719H421.804V88.8125H427.961V92H417.757V65.3125ZM440.686 65.3125H445.702L448.374 76.1094C448.655 77.2448 448.874 78.3385 449.03 79.3906C449.186 80.4323 449.332 81.4062 449.468 82.3125H449.593C449.738 81.4062 449.884 80.4323 450.03 79.3906C450.186 78.3385 450.405 77.2448 450.686 76.1094L453.327 65.3125H458.343V92H454.718V83.1719C454.718 81.3594 454.738 79.6562 454.78 78.0625C454.832 76.4688 454.889 75.0729 454.952 73.875C455.025 72.6771 455.087 71.7656 455.139 71.1406H454.843L450.811 88.5625H448.249L444.186 71.1406H443.889C443.952 71.7656 444.014 72.6771 444.077 73.875C444.139 75.0729 444.192 76.4688 444.233 78.0625C444.285 79.6562 444.311 81.3594 444.311 83.1719V92H440.686V65.3125Z" fill="#FE7743"/>
<defs>
<clipPath id="clip0_135_3">
<rect width="106" height="106" fill="white"/>
</clipPath>
</defs>
</svg>
