<svg width="432" height="106" viewBox="0 0 432 106" fill="none" xmlns="http://www.w3.org/2000/svg">
<g clip-path="url(#clip0_135_3)">
<path d="M35.1978 91.8627L24.4297 102.628L3.63037 81.829L14.3192 71.1378C14.8917 72.3727 15.5298 73.5793 16.2293 74.7641C17.8338 77.4709 29.113 88.568 31.7292 90.0763C32.863 90.7265 34.0227 91.3233 35.1978 91.8627Z" fill="#4F7693"/>
<path d="M95.7147 52.9805C95.7147 76.5788 76.5845 95.709 52.9862 95.709C29.3887 95.709 10.2585 76.5788 10.2585 52.9805C10.2585 29.3822 29.3887 10.2529 52.9862 10.2529C76.5845 10.2529 95.7147 29.3822 95.7147 52.9805Z" fill="#FECBAA"/>
<path d="M83.1998 22.7678C80.4615 20.0294 77.4434 17.7432 74.2384 15.9042C84.8261 32.44 82.8965 54.6724 68.4416 69.1273C54.4937 83.0752 33.3021 85.3615 16.9766 75.9909C18.611 78.544 20.5414 80.9621 22.7734 83.1941C39.4596 99.8803 66.5136 99.8803 83.1998 83.1941C99.886 66.5079 99.886 39.454 83.1998 22.7678Z" fill="#FFAE85"/>
<path d="M4.63242 73.2947L12.2157 65.7121C12.7875 67.5552 15.5299 73.5793 16.2294 74.7633L12.1794 78.8133C10.4358 80.5569 10.4358 83.3834 12.1794 85.127L21.2717 94.2193C23.0153 95.9629 25.8418 95.9629 27.5854 94.2193L38.6389 83.1658C40.4423 81.3624 43.3674 81.3624 45.1709 83.1658C46.9751 84.9701 46.9751 87.8952 45.1709 89.6986L33.104 101.766C27.7277 107.142 19.1715 107.399 13.4887 102.534C13.2064 102.289 12.9298 102.034 12.6622 101.766L4.63323 93.7365C4.33724 93.4414 4.055 93.1332 3.79136 92.8178C-0.998659 87.1399 -0.715609 78.6435 4.63242 73.2947Z" fill="#FF84A7"/>
<path d="M102.379 24.1733L91.6913 34.8621C91.1171 33.628 90.4783 32.4214 89.7803 31.2358C88.1758 28.5299 86.2487 25.9622 83.9932 23.5894C83.7344 23.3136 83.4691 23.0395 83.1974 22.7678C83.0906 22.6586 82.9815 22.5502 82.8699 22.4451C82.4873 22.0706 82.0975 21.7027 81.7045 21.3452C79.3892 19.2385 76.8967 17.4327 74.2805 15.9244C73.1443 15.2734 71.987 14.6774 70.8103 14.1396L81.5783 3.37234L102.379 24.1733Z" fill="#4F7693"/>
<path d="M101.376 32.7052L93.7931 40.2886C93.2214 38.4455 92.5194 36.6299 91.6905 34.8613C91.1163 33.628 90.479 32.4206 89.7795 31.2366L93.8295 27.1866C95.5723 25.4438 95.5723 22.6165 93.8295 20.8729L84.7372 11.7814C82.9936 10.0378 80.1671 10.0378 78.4235 11.7814L67.37 22.8341C65.5658 24.6383 62.6414 24.6383 60.8372 22.8341C59.0338 21.0306 59.0338 18.1055 60.8372 16.3013L72.9048 4.23443C78.2804 -1.1419 86.8374 -1.39907 92.5194 3.46696C92.8025 3.7112 93.079 3.96675 93.3467 4.23443L101.376 12.2634C101.671 12.5593 101.954 12.8675 102.218 13.1821C107.007 18.86 106.724 27.3572 101.376 32.7052Z" fill="#FF84A7"/>
<path d="M60.8374 21.6097L72.905 9.54203C78.2813 4.16569 86.8376 3.90933 92.5196 8.77456C92.8026 9.0196 93.0792 9.27435 93.3469 9.54203L101.376 17.5718C101.672 17.8669 101.954 18.1751 102.218 18.4897C103.872 20.4508 104.92 22.7475 105.364 25.1349C106.133 20.9934 105.086 16.5827 102.218 13.1821C101.954 12.8675 101.672 12.5593 101.376 12.2634L93.3469 4.23443C93.0792 3.96675 92.8026 3.7112 92.5196 3.46696C86.8376 -1.39907 78.2813 -1.1419 72.905 4.23443L60.8374 16.3013C59.2256 17.9138 59.0582 20.4192 60.3287 22.2219C60.4791 22.0076 60.6457 21.8013 60.8374 21.6097Z" fill="#EF6085"/>
<path d="M94.2558 26.6844C94.1264 26.859 93.9873 27.0289 93.8296 27.1866L89.7795 31.2366C90.45 32.3712 91.0614 33.5277 91.6169 34.7076L93.8296 32.495C95.4147 30.9099 95.553 28.432 94.2558 26.6844Z" fill="#EF6085"/>
<path d="M85.9471 21.6364L84.0086 23.5765C84.0038 23.5813 83.9981 23.5854 83.9933 23.5894C83.7345 23.3136 83.4692 23.0395 83.1975 22.7678C83.0907 22.6586 82.9816 22.5502 82.8699 22.4451C82.4874 22.0706 82.0976 21.7027 81.7046 21.3452C81.7151 21.3323 81.7256 21.3202 81.7386 21.3072L83.6787 19.3687C84.3062 18.742 85.3195 18.742 85.9471 19.3687C86.5739 19.9955 86.5739 21.0112 85.9471 21.6364Z" fill="#2F5066"/>
<path d="M90.8074 17.8524L87.8411 14.886C85.9794 13.0244 85.9794 10.0054 87.8411 8.14376L93.6606 2.32506C95.5222 0.463395 98.5404 0.463395 100.402 2.32506L103.368 5.29061C105.23 7.15228 105.23 10.1712 103.368 12.0329L97.5489 17.8516C95.6872 19.714 92.6691 19.714 90.8074 17.8524Z" fill="#FECBAA"/>
<path d="M94.0486 14.6102L91.0823 11.6447C89.2206 9.78303 89.2206 6.76409 91.0823 4.90243L93.6605 2.32506C95.5221 0.463395 98.5403 0.463395 100.402 2.32506L103.368 5.29142C105.23 7.15308 105.23 10.1712 103.368 12.0329L100.79 14.6102C98.9284 16.4719 95.9103 16.4719 94.0486 14.6102Z" fill="#C97F4C"/>
<path d="M11.2856 83.8379L10.8836 84.2406C9.14003 85.9842 9.14003 88.8107 10.8836 90.5543L19.976 99.6466C21.7188 101.389 24.5461 101.389 26.2896 99.6466L37.3423 88.5931C39.1466 86.7889 42.0709 86.7889 43.8751 88.5931C44.2997 89.0177 44.62 89.5053 44.8448 90.0245L45.1707 89.6986C46.975 87.8952 46.975 84.9701 45.1707 83.1658C43.3673 81.3624 40.4422 81.3624 38.6379 83.1658L27.5852 94.2193C25.8416 95.9629 23.0152 95.9629 21.2716 94.2193L12.1792 85.127C11.795 84.7428 11.5007 84.3045 11.2856 83.8379Z" fill="#EF6085"/>
<path d="M3.3369 78.7219L6.68498 75.3747C8.61053 73.4483 11.8454 74.046 12.997 76.5133C13.0059 76.5311 13.014 76.5489 13.0221 76.5667C13.1701 76.8837 13.3221 77.1999 13.479 77.5137L16.2294 74.7641C15.5299 73.5801 14.8918 72.3719 14.3176 71.1394C13.4887 69.3708 12.7875 67.5552 12.2158 65.7121L4.63246 73.2947C1.95723 75.9699 0.549255 79.4328 0.410156 82.937C1.10727 81.4101 2.08015 79.9787 3.3369 78.7219Z" fill="#EF6085"/>
<path d="M24.3036 84.6547C24.2931 84.6676 24.2826 84.6806 24.2689 84.6935L22.3304 86.632C22.0166 86.9466 21.6058 87.1027 21.1949 87.1027C20.7865 87.1027 20.3757 86.9466 20.0611 86.632C19.4344 86.0052 19.4344 84.9911 20.0611 84.3643L21.9996 82.4234C22.0037 82.4194 22.0101 82.4153 22.0142 82.4105C22.273 82.6871 22.5382 82.9604 22.81 83.2321C22.9191 83.3413 23.0283 83.4505 23.1375 83.5556C23.5208 83.9301 23.9098 84.298 24.3036 84.6547Z" fill="#2F5066"/>
<path d="M15.2013 88.1483L18.1677 91.1147C20.0294 92.9763 20.0294 95.9945 18.1677 97.8561L12.3482 103.676C10.4865 105.537 7.46761 105.537 5.60675 103.676L2.64039 100.709C0.778725 98.8476 0.778725 95.8295 2.64039 93.9678L8.45909 88.1483C10.3208 86.2867 13.3397 86.2867 15.2013 88.1483Z" fill="#FECBAA"/>
<path d="M11.9988 91.3508L14.9644 94.3164C16.8261 96.178 16.8261 99.197 14.9644 101.059L12.3482 103.676C10.4865 105.537 7.46761 105.537 5.60595 103.676L2.64039 100.709C0.778725 98.8476 0.778725 95.8287 2.64039 93.9678L5.25658 91.3508C7.11905 89.4892 10.1372 89.4892 11.9988 91.3508Z" fill="#C97F4C"/>
<path d="M102.628 81.5702L81.8282 102.372L71.1394 91.6832C72.3719 91.1074 73.5785 90.4701 74.7641 89.7706C77.4725 88.1677 80.0393 86.2406 82.4121 83.9851C82.6879 83.7263 82.962 83.4594 83.2313 83.1893C83.3405 83.0809 83.4497 82.9734 83.5564 82.8626C83.9308 82.4792 84.2988 82.0902 84.6538 81.6964C86.7614 79.3819 88.5672 76.8894 90.0755 74.2724C90.7257 73.137 91.3225 71.9789 91.8619 70.8022L102.628 81.5702Z" fill="#4F7693"/>
<path d="M73.2947 101.368L65.7114 93.7843C67.5553 93.2125 69.3701 92.5113 71.1387 91.6824C72.372 91.1082 73.5794 90.4701 74.7634 89.7714L78.8134 93.8207C80.557 95.5642 83.3835 95.5642 85.1271 93.8207L94.2194 84.7291C95.9622 82.9855 95.9622 80.1582 94.2194 78.4146L83.1659 67.3619C81.3625 65.5577 81.3625 62.6326 83.1659 60.8291C84.9702 59.0249 87.8945 59.0249 89.6987 60.8291L101.766 72.896C107.142 78.2723 107.399 86.8285 102.533 92.5113C102.289 92.7944 102.034 93.0702 101.766 93.3378L93.7366 101.368C93.4415 101.663 93.1325 101.946 92.8179 102.209C87.1399 106.999 78.6436 106.716 73.2947 101.368Z" fill="#83D9FF"/>
<path d="M83.166 66.3801C84.9702 64.5759 87.8945 64.5759 89.6988 66.3801L101.766 78.447C103.881 80.5626 105.2 83.1707 105.73 85.9017C106.621 81.3389 105.3 76.43 101.766 72.896L89.6988 60.8291C87.8945 59.0249 84.9702 59.0249 83.166 60.8291C81.517 62.4781 81.3803 65.0611 82.7463 66.871C82.874 66.7012 83.0115 66.5346 83.166 66.3801Z" fill="#5FC9ED"/>
<path d="M69.9264 97.7753C72.9292 96.394 76.4762 97.0345 78.8134 99.3717C80.557 101.115 83.3835 101.115 85.1271 99.3717L94.2194 90.2793C95.8409 88.6578 95.9517 86.0998 94.5567 84.3474C94.4515 84.4792 94.3407 84.607 94.2194 84.7291L85.1271 93.8206C83.3835 95.5642 80.557 95.5642 78.8134 93.8206L74.7634 89.7714C73.5794 90.4701 72.372 91.1082 71.1387 91.6824C69.3701 92.5113 67.5553 93.2125 65.7114 93.7843L69.772 97.8448C69.8068 97.8294 69.8593 97.806 69.9264 97.7753Z" fill="#5FC9ED"/>
<path d="M86.6336 85.9389C86.319 86.2511 85.9082 86.4096 85.4974 86.4096C85.0865 86.4096 84.6757 86.2511 84.3635 85.9389L82.425 84.0004C82.421 83.9964 82.417 83.9899 82.4121 83.9851C82.6879 83.7263 82.962 83.4594 83.2313 83.1893C83.3405 83.0809 83.4497 82.9733 83.5572 82.8626C83.9309 82.4792 84.2997 82.0902 84.6547 81.6964C84.6676 81.7069 84.6797 81.7174 84.6927 81.7304L86.6336 83.6688C87.2579 84.2956 87.2579 85.3122 86.6336 85.9389Z" fill="#2F5066"/>
<path d="M88.1484 90.7993L91.114 87.8329C92.9757 85.9713 95.9946 85.9713 97.8563 87.8329L103.675 93.6524C105.537 95.5141 105.537 98.5322 103.675 100.394L100.709 103.36C98.8477 105.222 95.8288 105.222 93.9671 103.36L88.1484 97.5407C86.2868 95.6791 86.2868 92.6609 88.1484 90.7993Z" fill="#FECBAA"/>
<path d="M91.3889 94.039L94.3545 91.0734C96.2161 89.2118 99.2351 89.2118 101.097 91.0734L103.675 93.6516C105.537 95.5133 105.537 98.5322 103.675 100.394L100.709 103.359C98.8477 105.221 95.8288 105.221 93.9671 103.359L91.3889 100.781C89.5273 98.9196 89.5273 95.9007 91.3889 94.039Z" fill="#C97F4C"/>
<path d="M34.8613 14.3086C33.6272 14.8844 32.4206 15.5217 31.2375 16.2212C28.5291 17.8233 25.9614 19.7512 23.5895 22.0059C23.3113 22.2647 23.0395 22.53 22.7678 22.8017C22.6586 22.9109 22.5519 23.0176 22.4443 23.1293C22.0699 23.5142 21.7019 23.904 21.3469 24.297C19.2378 26.6124 17.4319 29.1048 15.9236 31.7186C15.2726 32.8549 14.6758 34.0121 14.1388 35.1888L3.37158 24.4216L24.1725 3.61981L34.8613 14.3086Z" fill="#4F7693"/>
<path d="M32.7053 4.62424L40.2886 12.2076C38.4447 12.7793 36.63 13.4805 34.8613 14.3094C33.628 14.8836 32.4206 15.5217 31.2367 16.2204L27.1866 12.1712C25.443 10.4276 22.6166 10.4276 20.873 12.1712L11.7806 21.2627C10.0378 23.0063 10.0378 25.8336 11.7806 27.5772L22.8341 38.6299C24.6384 40.4341 24.6384 43.3593 22.8341 45.1627C21.0307 46.9669 18.1056 46.9669 16.3013 45.1627L4.23448 33.0959C-1.14186 27.7195 -1.39903 19.1633 3.46701 13.4805C3.71124 13.1974 3.96599 12.9217 4.23448 12.654L12.2634 4.62424C12.5594 4.32906 12.8675 4.04601 13.1821 3.78237C18.8601 -1.00685 27.3565 -0.724604 32.7053 4.62424Z" fill="#83D9FF"/>
<path d="M11.7806 27.5772C11.5986 27.3944 11.4393 27.1979 11.2945 26.9941C10.0613 28.7369 10.2198 31.163 11.7806 32.7238L22.8341 43.7774C23.05 43.9933 23.2385 44.2262 23.4026 44.4704C24.6108 42.6743 24.4224 40.2182 22.8341 38.6299L11.7806 27.5772Z" fill="#5FC9ED"/>
<path d="M3.46702 18.6279C3.71126 18.3449 3.966 18.0683 4.2345 17.8006L12.2634 9.77171C12.5594 9.47572 12.8675 9.19348 13.1821 8.92984C18.8601 4.13982 27.3573 4.42287 32.7053 9.77171L36.5135 13.5791C37.7541 13.0608 39.0141 12.6022 40.2886 12.2076L32.7053 4.62424C27.3565 -0.724604 18.8601 -1.00685 13.1821 3.78237C12.8675 4.04601 12.5594 4.32906 12.2634 4.62424L4.2345 12.6532C3.966 12.9208 3.71126 13.1974 3.46702 13.4805C0.559694 16.8755 -0.517514 21.2959 0.232165 25.4519C0.673723 22.9966 1.74931 20.6328 3.46702 18.6279Z" fill="#5FC9ED"/>
<path d="M23.5887 22.0059C23.3105 22.2647 23.0388 22.53 22.767 22.8017C22.6579 22.9109 22.5511 23.0177 22.4444 23.1293C22.0699 23.5142 21.702 23.904 21.3469 24.297C21.3316 24.2865 21.3186 24.2736 21.3065 24.2606L19.368 22.3222C18.7413 21.6954 18.7413 20.6797 19.368 20.0529C19.9948 19.4253 21.0105 19.4253 21.6381 20.0529L23.5766 21.9914C23.5806 21.9954 23.5847 22.0019 23.5887 22.0059Z" fill="#2F5066"/>
<path d="M17.8517 15.1925L14.8854 18.1589C13.0237 20.0205 10.0056 20.0205 8.14391 18.1589L2.3252 12.3402C0.46354 10.4785 0.46354 7.45959 2.3252 5.59793L5.29076 2.63237C7.15242 0.770707 10.1714 0.770707 12.033 2.63237L17.8517 8.45107C19.7134 10.3127 19.7134 13.3309 17.8517 15.1925Z" fill="#FECBAA"/>
<path d="M14.1252 11.466L11.1588 14.4323C9.29713 16.294 6.27901 16.294 4.41735 14.4323L2.3252 12.3402C0.46354 10.4785 0.46354 7.45959 2.3252 5.59793L5.29076 2.63237C7.15242 0.770707 10.1714 0.770707 12.033 2.63237L14.1252 4.72451C15.9868 6.58618 15.9868 9.6043 14.1252 11.466Z" fill="#C97F4C"/>
<path d="M42.8691 71.5211L35.0197 78.4809C34.4399 78.9945 33.5519 78.9411 33.0384 78.3604L29.9361 74.8611L27.8076 72.4601L24.5388 68.7715C24.0252 68.1925 24.0786 67.3061 24.6585 66.7926L32.5103 59.8336C33.0901 59.3201 33.9757 59.3734 34.4892 59.9533L37.6941 63.5666L39.8227 65.9693L42.9888 69.5398C43.5023 70.1196 43.449 71.0076 42.8691 71.5211Z" fill="white"/>
<path d="M81.9495 39.7661L70.6882 49.7489C70.0072 50.3522 68.9664 50.2899 68.3623 49.609L60.1886 40.3872C59.5845 39.7063 59.6476 38.6655 60.3285 38.0614L71.5899 28.0794C72.2708 27.4761 73.3116 27.5384 73.9149 28.2193L82.0894 37.4411C82.6935 38.122 82.6305 39.1628 81.9495 39.7661Z" fill="white"/>
<path d="M39.8227 65.9693L29.9451 74.8547C29.9426 74.8563 29.9386 74.8587 29.937 74.8611L27.8076 72.4601L37.6836 63.5755C37.6877 63.5731 37.6901 63.569 37.6942 63.5666L39.8227 65.9693Z" fill="#DAE2E8"/>
</g>
<path d="M131.469 52.3516C130.5 52.3516 129.438 52.2109 128.281 51.9297C127.141 51.6484 126.055 51.0625 125.023 50.1719C123.992 49.2812 123.148 47.9453 122.492 46.1641C121.836 44.3672 121.508 41.9688 121.508 38.9688V24.7891C121.508 22.3828 121.727 20.3828 122.164 18.7891C122.617 17.1797 123.203 15.8984 123.922 14.9453C124.656 13.9766 125.461 13.2578 126.336 12.7891C127.227 12.3047 128.109 11.9922 128.984 11.8516C129.875 11.6953 130.695 11.6172 131.445 11.6172C133.508 11.6172 135.141 12 136.344 12.7656C137.547 13.5313 138.406 14.5625 138.922 15.8594C139.453 17.1406 139.719 18.5547 139.719 20.1016C139.719 20.9609 139.648 21.7578 139.508 22.4922C139.383 23.2109 139.234 24.0078 139.062 24.8828H134.375V22.9609C134.375 18.5703 133.344 16.375 131.281 16.375C130.172 16.375 129.32 16.8594 128.727 17.8281C128.148 18.7812 127.859 20.5391 127.859 23.1016V41.1484C127.859 43.6328 128.148 45.3281 128.727 46.2344C129.32 47.1406 130.234 47.5938 131.469 47.5938C132.328 47.5938 133.039 47.2344 133.602 46.5156C134.164 45.7812 134.445 44.6094 134.445 43V39.2031H139.766V42.9062C139.766 46.1094 139.055 48.4844 137.633 50.0312C136.211 51.5781 134.156 52.3516 131.469 52.3516ZM153.195 52.3516C152.227 52.3516 151.164 52.2109 150.008 51.9297C148.867 51.6484 147.781 51.0625 146.75 50.1719C145.719 49.2812 144.875 47.9453 144.219 46.1641C143.562 44.3672 143.234 41.9688 143.234 38.9688V24.7891C143.234 22.3828 143.453 20.3828 143.891 18.7891C144.344 17.1797 144.93 15.8984 145.648 14.9453C146.383 13.9766 147.188 13.2578 148.062 12.7891C148.953 12.3047 149.844 11.9922 150.734 11.8516C151.625 11.6953 152.445 11.6172 153.195 11.6172C153.914 11.6172 154.711 11.6875 155.586 11.8281C156.477 11.9688 157.359 12.2734 158.234 12.7422C159.109 13.1953 159.906 13.8984 160.625 14.8516C161.359 15.8047 161.945 17.0859 162.383 18.6953C162.836 20.3047 163.062 22.3359 163.062 24.7891V38.9688C163.062 41.9375 162.719 44.3125 162.031 46.0938C161.344 47.875 160.477 49.2188 159.43 50.125C158.383 51.0156 157.297 51.6094 156.172 51.9062C155.062 52.2031 154.07 52.3516 153.195 52.3516ZM153.195 47.5938C154.398 47.5938 155.289 47.1406 155.867 46.2344C156.445 45.3281 156.734 43.6328 156.734 41.1484V23.1016C156.734 20.5391 156.445 18.7812 155.867 17.8281C155.289 16.8594 154.398 16.375 153.195 16.375C151.961 16.375 151.047 16.8594 150.453 17.8281C149.875 18.7812 149.586 20.5391 149.586 23.1016V41.1484C149.586 43.6328 149.875 45.3281 150.453 46.2344C151.047 47.1406 151.961 47.5938 153.195 47.5938ZM169.039 11.9688H173.844L183.617 38.2891H183.758C183.695 37.4609 183.609 36.5391 183.5 35.5234C183.406 34.4922 183.32 33.2578 183.242 31.8203C183.164 30.3828 183.125 28.6328 183.125 26.5703V11.9688H188.516V52H183.664L173.938 26.3828H173.75C173.828 27.3203 173.914 28.3438 174.008 29.4531C174.102 30.5625 174.188 31.9609 174.266 33.6484C174.344 35.3359 174.383 37.5312 174.383 40.2344V52H169.039V11.9688ZM195.148 11.9688H210.453V16.9375H201.219V28.7266H208.461V33.5078H201.219V52H195.148V11.9688ZM213.711 11.9688H229.016V16.75H219.781V28.7266H227.023V33.5078H219.781V47.2188H229.016V52H213.711V11.9688ZM232.648 11.9688H239.234C240.156 11.9688 241.172 12.0234 242.281 12.1328C243.391 12.2422 244.492 12.4922 245.586 12.8828C246.68 13.2578 247.68 13.8594 248.586 14.6875C249.492 15.5 250.219 16.6172 250.766 18.0391C251.328 19.4453 251.609 21.2344 251.609 23.4062V24.4141C251.609 30.4141 249.805 34.2734 246.195 35.9922L252.781 52H246.312L240.805 37.0234H238.719V52H232.648V11.9688ZM239.516 32.6406C241.734 32.6406 243.258 32.125 244.086 31.0938C244.93 30.0625 245.352 28.2031 245.352 25.5156V22.3516C245.352 20.2891 244.953 18.7734 244.156 17.8047C243.375 16.8359 241.828 16.3516 239.516 16.3516H238.719V32.6406H239.516ZM257.398 11.9688H272.703V16.75H263.469V28.7266H270.711V33.5078H263.469V47.2188H272.703V52H257.398V11.9688ZM285.078 52.3516C284.109 52.3516 283.047 52.2109 281.891 51.9297C280.75 51.6484 279.664 51.0625 278.633 50.1719C277.602 49.2812 276.758 47.9453 276.102 46.1641C275.445 44.3672 275.117 41.9688 275.117 38.9688V24.7891C275.117 22.3828 275.336 20.3828 275.773 18.7891C276.227 17.1797 276.812 15.8984 277.531 14.9453C278.266 13.9766 279.07 13.2578 279.945 12.7891C280.836 12.3047 281.719 11.9922 282.594 11.8516C283.484 11.6953 284.305 11.6172 285.055 11.6172C287.117 11.6172 288.75 12 289.953 12.7656C291.156 13.5313 292.016 14.5625 292.531 15.8594C293.062 17.1406 293.328 18.5547 293.328 20.1016C293.328 20.9609 293.258 21.7578 293.117 22.4922C292.992 23.2109 292.844 24.0078 292.672 24.8828H287.984V22.9609C287.984 18.5703 286.953 16.375 284.891 16.375C283.781 16.375 282.93 16.8594 282.336 17.8281C281.758 18.7812 281.469 20.5391 281.469 23.1016V41.1484C281.469 43.6328 281.758 45.3281 282.336 46.2344C282.93 47.1406 283.844 47.5938 285.078 47.5938C285.938 47.5938 286.648 47.2344 287.211 46.5156C287.773 45.7812 288.055 44.6094 288.055 43V39.2031H293.375V42.9062C293.375 46.1094 292.664 48.4844 291.242 50.0312C289.82 51.5781 287.766 52.3516 285.078 52.3516ZM297.664 11.9688H312.969V16.75H303.734V28.7266H310.977V33.5078H303.734V47.2188H312.969V52H297.664V11.9688ZM327.242 11.9688H333.828C334.75 11.9688 335.766 12.0234 336.875 12.1328C337.984 12.2422 339.086 12.4922 340.18 12.8828C341.273 13.2578 342.273 13.8594 343.18 14.6875C344.086 15.5 344.812 16.6172 345.359 18.0391C345.922 19.4453 346.203 21.2344 346.203 23.4062V24.4141C346.203 30.4141 344.398 34.2734 340.789 35.9922L347.375 52H340.906L335.398 37.0234H333.312V52H327.242V11.9688ZM334.109 32.6406C336.328 32.6406 337.852 32.125 338.68 31.0938C339.523 30.0625 339.945 28.2031 339.945 25.5156V22.3516C339.945 20.2891 339.547 18.7734 338.75 17.8047C337.969 16.8359 336.422 16.3516 334.109 16.3516H333.312V32.6406H334.109ZM361.18 52.3516C360.211 52.3516 359.148 52.2109 357.992 51.9297C356.852 51.6484 355.766 51.0625 354.734 50.1719C353.703 49.2812 352.859 47.9453 352.203 46.1641C351.547 44.3672 351.219 41.9688 351.219 38.9688V24.7891C351.219 22.3828 351.438 20.3828 351.875 18.7891C352.328 17.1797 352.914 15.8984 353.633 14.9453C354.367 13.9766 355.172 13.2578 356.047 12.7891C356.938 12.3047 357.828 11.9922 358.719 11.8516C359.609 11.6953 360.43 11.6172 361.18 11.6172C361.898 11.6172 362.695 11.6875 363.57 11.8281C364.461 11.9688 365.344 12.2734 366.219 12.7422C367.094 13.1953 367.891 13.8984 368.609 14.8516C369.344 15.8047 369.93 17.0859 370.367 18.6953C370.82 20.3047 371.047 22.3359 371.047 24.7891V38.9688C371.047 41.9375 370.703 44.3125 370.016 46.0938C369.328 47.875 368.461 49.2188 367.414 50.125C366.367 51.0156 365.281 51.6094 364.156 51.9062C363.047 52.2031 362.055 52.3516 361.18 52.3516ZM361.18 47.5938C362.383 47.5938 363.273 47.1406 363.852 46.2344C364.43 45.3281 364.719 43.6328 364.719 41.1484V23.1016C364.719 20.5391 364.43 18.7812 363.852 17.8281C363.273 16.8594 362.383 16.375 361.18 16.375C359.945 16.375 359.031 16.8594 358.438 17.8281C357.859 18.7812 357.57 20.5391 357.57 23.1016V41.1484C357.57 43.6328 357.859 45.3281 358.438 46.2344C359.031 47.1406 359.945 47.5938 361.18 47.5938ZM386.352 52.3516C385.383 52.3516 384.32 52.2109 383.164 51.9297C382.023 51.6484 380.938 51.0625 379.906 50.1719C378.875 49.2812 378.031 47.9453 377.375 46.1641C376.719 44.3672 376.391 41.9688 376.391 38.9688V24.7891C376.391 22.3828 376.609 20.3828 377.047 18.7891C377.5 17.1797 378.086 15.8984 378.805 14.9453C379.539 13.9766 380.344 13.2578 381.219 12.7891C382.109 12.3047 383 11.9922 383.891 11.8516C384.781 11.6953 385.602 11.6172 386.352 11.6172C387.07 11.6172 387.867 11.6875 388.742 11.8281C389.633 11.9688 390.516 12.2734 391.391 12.7422C392.266 13.1953 393.062 13.8984 393.781 14.8516C394.516 15.8047 395.102 17.0859 395.539 18.6953C395.992 20.3047 396.219 22.3359 396.219 24.7891V38.9688C396.219 41.9375 395.875 44.3125 395.188 46.0938C394.5 47.875 393.633 49.2188 392.586 50.125C391.539 51.0156 390.453 51.6094 389.328 51.9062C388.219 52.2031 387.227 52.3516 386.352 52.3516ZM386.352 47.5938C387.555 47.5938 388.445 47.1406 389.023 46.2344C389.602 45.3281 389.891 43.6328 389.891 41.1484V23.1016C389.891 20.5391 389.602 18.7812 389.023 17.8281C388.445 16.8594 387.555 16.375 386.352 16.375C385.117 16.375 384.203 16.8594 383.609 17.8281C383.031 18.7812 382.742 20.5391 382.742 23.1016V41.1484C382.742 43.6328 383.031 45.3281 383.609 46.2344C384.203 47.1406 385.117 47.5938 386.352 47.5938ZM402.195 11.9688H409.719L413.727 28.1641C414.148 29.8672 414.477 31.5078 414.711 33.0859C414.945 34.6484 415.164 36.1094 415.367 37.4688H415.555C415.773 36.1094 415.992 34.6484 416.211 33.0859C416.445 31.5078 416.773 29.8672 417.195 28.1641L421.156 11.9688H428.68V52H423.242V38.7578C423.242 36.0391 423.273 33.4844 423.336 31.0938C423.414 28.7031 423.5 26.6094 423.594 24.8125C423.703 23.0156 423.797 21.6484 423.875 20.7109H423.43L417.383 46.8438H413.539L407.445 20.7109H407C407.094 21.6484 407.188 23.0156 407.281 24.8125C407.375 26.6094 407.453 28.7031 407.516 31.0938C407.594 33.4844 407.633 36.0391 407.633 38.7578V52H402.195V11.9688ZM121.203 65.3125H125.297C126.203 65.3125 127.141 65.3698 128.109 65.4844C129.078 65.599 129.979 65.8542 130.812 66.25C131.646 66.6354 132.318 67.2344 132.828 68.0469C133.349 68.8594 133.609 69.9635 133.609 71.3594V72.6562C133.609 74.0729 133.271 75.2292 132.594 76.125C131.927 77.0104 131.182 77.6042 130.359 77.9062V78.0312C131.568 78.5104 132.484 79.1979 133.109 80.0938C133.734 80.9896 134.047 82.2292 134.047 83.8125V85.1719C134.047 86.6198 133.812 87.7969 133.344 88.7031C132.885 89.599 132.255 90.2865 131.453 90.7656C130.651 91.2448 129.734 91.5729 128.703 91.75C127.672 91.9167 126.589 92 125.453 92H121.203V65.3125ZM125.953 76.7344C127.036 76.7344 127.901 76.4688 128.547 75.9375C129.193 75.3958 129.516 74.5 129.516 73.25V72.1562C129.516 70.9167 129.255 69.9583 128.734 69.2812C128.214 68.6042 127.286 68.2656 125.953 68.2656H125.25V76.7344H125.953ZM126.328 89.0469C127.411 89.0469 128.271 88.7812 128.906 88.25C129.552 87.7083 129.875 86.8125 129.875 85.5625V83.4844C129.875 82.2344 129.615 81.276 129.094 80.6094C128.583 79.9323 127.661 79.5938 126.328 79.5938H125.25V89.0469H126.328ZM151.861 92.2344C151.215 92.2344 150.507 92.1406 149.736 91.9531C148.975 91.7656 148.251 91.375 147.564 90.7812C146.876 90.1875 146.314 89.2969 145.876 88.1094C145.439 86.9115 145.22 85.3125 145.22 83.3125V73.8594C145.22 72.2552 145.366 70.9219 145.658 69.8594C145.96 68.7865 146.35 67.9323 146.83 67.2969C147.319 66.651 147.856 66.1719 148.439 65.8594C149.033 65.5365 149.626 65.3281 150.22 65.2344C150.814 65.1302 151.361 65.0781 151.861 65.0781C152.34 65.0781 152.871 65.125 153.455 65.2188C154.048 65.3125 154.637 65.5156 155.22 65.8281C155.804 66.1302 156.335 66.599 156.814 67.2344C157.304 67.8698 157.694 68.724 157.986 69.7969C158.288 70.8698 158.439 72.224 158.439 73.8594V83.3125C158.439 85.2917 158.21 86.875 157.751 88.0625C157.293 89.25 156.715 90.1458 156.017 90.75C155.319 91.3438 154.595 91.7396 153.845 91.9375C153.106 92.1354 152.444 92.2344 151.861 92.2344ZM151.861 89.0625C152.663 89.0625 153.257 88.7604 153.642 88.1562C154.028 87.5521 154.22 86.4219 154.22 84.7656V72.7344C154.22 71.026 154.028 69.8542 153.642 69.2188C153.257 68.5729 152.663 68.25 151.861 68.25C151.038 68.25 150.429 68.5729 150.033 69.2188C149.647 69.8542 149.455 71.026 149.455 72.7344V84.7656C149.455 86.4219 149.647 87.5521 150.033 88.1562C150.429 88.7604 151.038 89.0625 151.861 89.0625ZM176.706 92.2344C176.06 92.2344 175.352 92.1406 174.581 91.9531C173.821 91.7656 173.097 91.375 172.409 90.7812C171.722 90.1875 171.159 89.2969 170.722 88.1094C170.284 86.9115 170.065 85.3125 170.065 83.3125V73.8594C170.065 72.2552 170.211 70.9219 170.503 69.8594C170.805 68.7865 171.196 67.9323 171.675 67.2969C172.164 66.651 172.701 66.1719 173.284 65.8594C173.878 65.5365 174.472 65.3281 175.065 65.2344C175.659 65.1302 176.206 65.0781 176.706 65.0781C177.185 65.0781 177.717 65.125 178.3 65.2188C178.894 65.3125 179.482 65.5156 180.065 65.8281C180.649 66.1302 181.18 66.599 181.659 67.2344C182.149 67.8698 182.539 68.724 182.831 69.7969C183.133 70.8698 183.284 72.224 183.284 73.8594V83.3125C183.284 85.2917 183.055 86.875 182.597 88.0625C182.138 89.25 181.56 90.1458 180.862 90.75C180.164 91.3438 179.44 91.7396 178.69 91.9375C177.951 92.1354 177.289 92.2344 176.706 92.2344ZM176.706 89.0625C177.508 89.0625 178.102 88.7604 178.487 88.1562C178.873 87.5521 179.065 86.4219 179.065 84.7656V72.7344C179.065 71.026 178.873 69.8542 178.487 69.2188C178.102 68.5729 177.508 68.25 176.706 68.25C175.883 68.25 175.274 68.5729 174.878 69.2188C174.493 69.8542 174.3 71.026 174.3 72.7344V84.7656C174.3 86.4219 174.493 87.5521 174.878 88.1562C175.274 88.7604 175.883 89.0625 176.706 89.0625ZM195.333 65.3125H199.38V76.9688H199.505L204.13 65.3125H208.161L203.02 77.8281L208.739 92H204.411L199.505 79.2969H199.38V92H195.333V65.3125ZM219.022 65.3125H223.068V92H219.022V65.3125ZM235.554 65.3125H238.757L245.273 82.8594H245.367C245.325 82.3073 245.268 81.6927 245.195 81.0156C245.132 80.3281 245.075 79.5052 245.023 78.5469C244.971 77.5885 244.945 76.4219 244.945 75.0469V65.3125H248.539V92H245.304L238.82 74.9219H238.695C238.747 75.5469 238.804 76.2292 238.867 76.9688C238.929 77.7083 238.987 78.6406 239.039 79.7656C239.091 80.8906 239.117 82.3542 239.117 84.1562V92H235.554V65.3125ZM266.587 92.25C266.212 92.25 265.764 92.1927 265.243 92.0781C264.733 91.9635 264.207 91.7396 263.665 91.4062C263.134 91.0729 262.634 90.5781 262.165 89.9219C261.707 89.2656 261.332 88.401 261.04 87.3281C260.759 86.2552 260.618 84.9167 260.618 83.3125V73.8594C260.618 72.2552 260.769 70.9219 261.072 69.8594C261.374 68.7865 261.769 67.9323 262.259 67.2969C262.759 66.651 263.311 66.1719 263.915 65.8594C264.519 65.5365 265.124 65.3281 265.728 65.2344C266.332 65.1302 266.889 65.0781 267.4 65.0781C268.848 65.0781 269.993 65.3333 270.837 65.8438C271.691 66.3542 272.301 67.0417 272.665 67.9062C273.04 68.7604 273.228 69.7031 273.228 70.7344C273.228 71.3073 273.186 71.8385 273.103 72.3281C273.019 72.8073 272.92 73.3385 272.806 73.9219H269.681V72.6406C269.681 69.7135 268.884 68.25 267.29 68.25C266.436 68.25 265.816 68.5729 265.431 69.2188C265.045 69.8542 264.853 71.026 264.853 72.7344V84.7656C264.853 86.4219 265.051 87.5573 265.447 88.1719C265.842 88.776 266.467 89.0781 267.322 89.0781C268.217 89.0781 268.868 88.6458 269.275 87.7812C269.681 86.9062 269.884 85.8281 269.884 84.5469V81.1406H267.806V78.4844H273.759V92H271.134L270.697 89.4531C270.322 90.1927 269.769 90.8438 269.04 91.4062C268.311 91.9688 267.493 92.25 266.587 92.25ZM299.09 86.5938C299.09 86.0208 299.121 85.4896 299.184 85C299.257 84.5104 299.361 83.9896 299.496 83.4375H302.637V84.625C302.637 86.0625 302.856 87.1667 303.293 87.9375C303.731 88.6979 304.403 89.0781 305.309 89.0781C306.871 89.0781 307.653 88.3125 307.653 86.7812C307.653 86.1875 307.522 85.5625 307.262 84.9062C307.012 84.25 306.517 83.4479 305.778 82.5L301.559 77.2031C300.819 76.2448 300.241 75.2865 299.824 74.3281C299.418 73.3698 299.215 72.3021 299.215 71.125C299.215 69.3542 299.762 67.9062 300.856 66.7812C301.96 65.6458 303.486 65.0781 305.434 65.0781C307.007 65.0781 308.241 65.3646 309.137 65.9375C310.033 66.5 310.663 67.2135 311.028 68.0781C311.403 68.9427 311.59 69.8281 311.59 70.7344C311.59 71.3073 311.543 71.8385 311.449 72.3281C311.366 72.8073 311.267 73.3385 311.153 73.9219H308.028V72.6406C308.028 71.2344 307.804 70.151 307.356 69.3906C306.908 68.6302 306.267 68.25 305.434 68.25C304.673 68.25 304.095 68.4635 303.699 68.8906C303.314 69.3073 303.121 69.8698 303.121 70.5781C303.121 71.1823 303.246 71.7344 303.496 72.2344C303.746 72.724 304.064 73.2292 304.449 73.75L309.153 79.7188C310.017 80.8333 310.673 81.8958 311.121 82.9062C311.58 83.9062 311.809 85.0208 311.809 86.25C311.809 88.0938 311.22 89.5573 310.043 90.6406C308.866 91.7135 307.298 92.25 305.34 92.25C303.736 92.25 302.476 91.9792 301.559 91.4375C300.653 90.8854 300.012 90.1771 299.637 89.3125C299.272 88.4479 299.09 87.5417 299.09 86.5938ZM325.889 82.6406L320.67 65.3125H324.748L327.842 78.1875H328.029L331.123 65.3125H335.185L329.935 82.6406V92H325.889V82.6406ZM344.124 86.5938C344.124 86.0208 344.156 85.4896 344.218 85C344.291 84.5104 344.395 83.9896 344.531 83.4375H347.671V84.625C347.671 86.0625 347.89 87.1667 348.327 87.9375C348.765 88.6979 349.437 89.0781 350.343 89.0781C351.906 89.0781 352.687 88.3125 352.687 86.7812C352.687 86.1875 352.557 85.5625 352.296 84.9062C352.046 84.25 351.551 83.4479 350.812 82.5L346.593 77.2031C345.854 76.2448 345.275 75.2865 344.859 74.3281C344.452 73.3698 344.249 72.3021 344.249 71.125C344.249 69.3542 344.796 67.9062 345.89 66.7812C346.994 65.6458 348.52 65.0781 350.468 65.0781C352.041 65.0781 353.275 65.3646 354.171 65.9375C355.067 66.5 355.697 67.2135 356.062 68.0781C356.437 68.9427 356.624 69.8281 356.624 70.7344C356.624 71.3073 356.577 71.8385 356.484 72.3281C356.4 72.8073 356.301 73.3385 356.187 73.9219H353.062V72.6406C353.062 71.2344 352.838 70.151 352.39 69.3906C351.942 68.6302 351.301 68.25 350.468 68.25C349.708 68.25 349.13 68.4635 348.734 68.8906C348.348 69.3073 348.156 69.8698 348.156 70.5781C348.156 71.1823 348.281 71.7344 348.531 72.2344C348.781 72.724 349.098 73.2292 349.484 73.75L354.187 79.7188C355.051 80.8333 355.708 81.8958 356.156 82.9062C356.614 83.9062 356.843 85.0208 356.843 86.25C356.843 88.0938 356.255 89.5573 355.077 90.6406C353.9 91.7135 352.333 92.25 350.374 92.25C348.77 92.25 347.51 91.9792 346.593 91.4375C345.687 90.8854 345.046 90.1771 344.671 89.3125C344.307 88.4479 344.124 87.5417 344.124 86.5938ZM370.313 68.5H366.016V65.3125H378.641V68.5H374.36V92H370.313V68.5ZM388.877 65.3125H399.081V68.5H392.924V76.4844H397.752V79.6719H392.924V88.8125H399.081V92H388.877V65.3125ZM409.566 65.3125H414.582L417.254 76.1094C417.535 77.2448 417.754 78.3385 417.91 79.3906C418.066 80.4323 418.212 81.4062 418.348 82.3125H418.473C418.618 81.4062 418.764 80.4323 418.91 79.3906C419.066 78.3385 419.285 77.2448 419.566 76.1094L422.207 65.3125H427.223V92H423.598V83.1719C423.598 81.3594 423.618 79.6562 423.66 78.0625C423.712 76.4688 423.77 75.0729 423.832 73.875C423.905 72.6771 423.967 71.7656 424.02 71.1406H423.723L419.691 88.5625H417.129L413.066 71.1406H412.77C412.832 71.7656 412.895 72.6771 412.957 73.875C413.02 75.0729 413.072 76.4688 413.113 78.0625C413.165 79.6562 413.191 81.3594 413.191 83.1719V92H409.566V65.3125Z" fill="#FE7743"/>
<defs>
<clipPath id="clip0_135_3">
<rect width="106" height="106" fill="white"/>
</clipPath>
</defs>
</svg>
