<svg width="313" height="215" viewBox="0 0 313 215" fill="none" xmlns="http://www.w3.org/2000/svg">
<g clip-path="url(#clip0_135_4)">
<path d="M139.198 91.8628L128.43 102.628L107.63 81.829L118.319 71.1378C118.892 72.3727 119.53 73.5793 120.229 74.7641C121.834 77.4709 133.113 88.5681 135.729 90.0763C136.863 90.7265 138.023 91.3233 139.198 91.8628Z" fill="#4F7693"/>
<path d="M199.715 52.9805C199.715 76.5788 180.584 95.709 156.986 95.709C133.389 95.709 114.259 76.5788 114.259 52.9805C114.259 29.3822 133.389 10.2529 156.986 10.2529C180.584 10.2529 199.715 29.3822 199.715 52.9805Z" fill="#FECBAA"/>
<path d="M187.2 22.7678C184.461 20.0294 181.443 17.7432 178.238 15.9042C188.826 32.44 186.897 54.6724 172.442 69.1273C158.494 83.0752 137.302 85.3615 120.977 75.9909C122.611 78.544 124.541 80.9621 126.773 83.1941C143.46 99.8803 170.514 99.8803 187.2 83.1941C203.886 66.5079 203.886 39.454 187.2 22.7678Z" fill="#FFAE85"/>
<path d="M108.632 73.2947L116.216 65.7121C116.788 67.5552 119.53 73.5793 120.229 74.7633L116.179 78.8133C114.436 80.5569 114.436 83.3834 116.179 85.127L125.272 94.2193C127.015 95.9629 129.842 95.9629 131.585 94.2193L142.639 83.1658C144.442 81.3624 147.367 81.3624 149.171 83.1658C150.975 84.9701 150.975 87.8952 149.171 89.6986L137.104 101.766C131.728 107.142 123.172 107.399 117.489 102.534C117.206 102.289 116.93 102.034 116.662 101.766L108.633 93.7365C108.337 93.4414 108.055 93.1332 107.791 92.8178C103.001 87.1399 103.284 78.6435 108.632 73.2947Z" fill="#FF84A7"/>
<path d="M206.379 24.1733L195.691 34.8621C195.117 33.628 194.478 32.4214 193.78 31.2358C192.176 28.5299 190.249 25.9622 187.993 23.5894C187.734 23.3136 187.469 23.0395 187.197 22.7678C187.091 22.6586 186.981 22.5502 186.87 22.4451C186.487 22.0706 186.098 21.7027 185.705 21.3452C183.389 19.2385 180.897 17.4327 178.28 15.9244C177.144 15.2734 175.987 14.6774 174.81 14.1396L185.578 3.37234L206.379 24.1733Z" fill="#4F7693"/>
<path d="M205.376 32.7052L197.793 40.2886C197.221 38.4455 196.519 36.6299 195.69 34.8613C195.116 33.628 194.479 32.4206 193.779 31.2366L197.83 27.1866C199.572 25.4438 199.572 22.6165 197.83 20.8729L188.737 11.7814C186.994 10.0378 184.167 10.0378 182.424 11.7814L171.37 22.8341C169.566 24.6383 166.641 24.6383 164.837 22.8341C163.034 21.0306 163.034 18.1055 164.837 16.3013L176.905 4.23443C182.28 -1.1419 190.837 -1.39907 196.519 3.46696C196.802 3.7112 197.079 3.96675 197.347 4.23443L205.376 12.2634C205.671 12.5593 205.954 12.8675 206.218 13.1821C211.007 18.86 210.724 27.3572 205.376 32.7052Z" fill="#FF84A7"/>
<path d="M164.837 21.6097L176.905 9.54203C182.281 4.16569 190.838 3.90933 196.52 8.77456C196.803 9.0196 197.079 9.27435 197.347 9.54203L205.376 17.5718C205.672 17.8669 205.954 18.1751 206.218 18.4897C207.872 20.4508 208.92 22.7475 209.364 25.1349C210.133 20.9934 209.086 16.5827 206.218 13.1821C205.954 12.8675 205.672 12.5593 205.376 12.2634L197.347 4.23443C197.079 3.96675 196.803 3.7112 196.52 3.46696C190.838 -1.39907 182.281 -1.1419 176.905 4.23443L164.837 16.3013C163.226 17.9138 163.058 20.4192 164.329 22.2219C164.479 22.0076 164.646 21.8013 164.837 21.6097Z" fill="#EF6085"/>
<path d="M198.256 26.6844C198.126 26.859 197.987 27.0289 197.83 27.1866L193.78 31.2366C194.45 32.3712 195.061 33.5277 195.617 34.7076L197.83 32.495C199.415 30.9099 199.553 28.432 198.256 26.6844Z" fill="#EF6085"/>
<path d="M189.947 21.6364L188.009 23.5765C188.004 23.5813 187.998 23.5854 187.993 23.5894C187.734 23.3136 187.469 23.0395 187.197 22.7678C187.091 22.6586 186.982 22.5502 186.87 22.4451C186.487 22.0706 186.098 21.7027 185.705 21.3452C185.715 21.3323 185.726 21.3202 185.739 21.3072L187.679 19.3687C188.306 18.742 189.32 18.742 189.947 19.3687C190.574 19.9955 190.574 21.0112 189.947 21.6364Z" fill="#2F5066"/>
<path d="M194.807 17.8524L191.841 14.886C189.979 13.0244 189.979 10.0054 191.841 8.14376L197.661 2.32506C199.522 0.463395 202.54 0.463395 204.402 2.32506L207.368 5.29061C209.23 7.15228 209.23 10.1712 207.368 12.0329L201.549 17.8516C199.687 19.714 196.669 19.714 194.807 17.8524Z" fill="#FECBAA"/>
<path d="M198.049 14.6102L195.082 11.6447C193.221 9.78303 193.221 6.76409 195.082 4.90243L197.66 2.32506C199.522 0.463395 202.54 0.463395 204.402 2.32506L207.368 5.29142C209.23 7.15308 209.23 10.1712 207.368 12.0329L204.79 14.6102C202.928 16.4719 199.91 16.4719 198.049 14.6102Z" fill="#C97F4C"/>
<path d="M115.286 83.8379L114.884 84.2406C113.14 85.9842 113.14 88.8107 114.884 90.5543L123.976 99.6466C125.719 101.389 128.546 101.389 130.29 99.6466L141.342 88.5931C143.147 86.7889 146.071 86.7889 147.875 88.5931C148.3 89.0177 148.62 89.5054 148.845 90.0246L149.171 89.6986C150.975 87.8952 150.975 84.9701 149.171 83.1658C147.367 81.3624 144.442 81.3624 142.638 83.1658L131.585 94.2194C129.842 95.9629 127.015 95.9629 125.272 94.2194L116.179 85.127C115.795 84.7428 115.501 84.3045 115.286 83.8379Z" fill="#EF6085"/>
<path d="M107.337 78.7219L110.685 75.3747C112.611 73.4483 115.845 74.046 116.997 76.5133C117.006 76.5311 117.014 76.5489 117.022 76.5667C117.17 76.8837 117.322 77.1999 117.479 77.5137L120.229 74.7641C119.53 73.5801 118.892 72.3719 118.318 71.1394C117.489 69.3708 116.788 67.5552 116.216 65.7121L108.632 73.2947C105.957 75.9699 104.549 79.4328 104.41 82.937C105.107 81.4101 106.08 79.9787 107.337 78.7219Z" fill="#EF6085"/>
<path d="M128.304 84.6547C128.293 84.6676 128.283 84.6806 128.269 84.6935L126.33 86.632C126.017 86.9466 125.606 87.1027 125.195 87.1027C124.787 87.1027 124.376 86.9466 124.061 86.632C123.434 86.0052 123.434 84.9911 124.061 84.3643L126 82.4234C126.004 82.4194 126.01 82.4153 126.014 82.4105C126.273 82.6871 126.538 82.9604 126.81 83.2321C126.919 83.3413 127.028 83.4505 127.137 83.5556C127.521 83.9301 127.91 84.298 128.304 84.6547Z" fill="#2F5066"/>
<path d="M119.201 88.1483L122.168 91.1147C124.029 92.9764 124.029 95.9945 122.168 97.8561L116.348 103.676C114.487 105.537 111.468 105.537 109.607 103.676L106.64 100.709C104.779 98.8476 104.779 95.8295 106.64 93.9678L112.459 88.1483C114.321 86.2867 117.34 86.2867 119.201 88.1483Z" fill="#FECBAA"/>
<path d="M115.999 91.3508L118.964 94.3164C120.826 96.1781 120.826 99.197 118.964 101.059L116.348 103.676C114.487 105.537 111.468 105.537 109.606 103.676L106.64 100.709C104.779 98.8476 104.779 95.8287 106.64 93.9678L109.257 91.3508C111.119 89.4892 114.137 89.4892 115.999 91.3508Z" fill="#C97F4C"/>
<path d="M206.628 81.5702L185.828 102.372L175.139 91.6832C176.372 91.1074 177.578 90.4701 178.764 89.7706C181.472 88.1677 184.039 86.2406 186.412 83.985C186.688 83.7263 186.962 83.4594 187.231 83.1893C187.34 83.0809 187.45 82.9733 187.556 82.8626C187.931 82.4792 188.299 82.0902 188.654 81.6964C190.761 79.3818 192.567 76.8894 194.075 74.2724C194.726 73.1369 195.323 71.9789 195.862 70.8022L206.628 81.5702Z" fill="#4F7693"/>
<path d="M177.295 101.368L169.711 93.7843C171.555 93.2125 173.37 92.5113 175.139 91.6824C176.372 91.1082 177.579 90.4701 178.763 89.7714L182.813 93.8207C184.557 95.5642 187.383 95.5642 189.127 93.8207L198.219 84.7291C199.962 82.9855 199.962 80.1582 198.219 78.4146L187.166 67.3619C185.362 65.5577 185.362 62.6326 187.166 60.8291C188.97 59.0249 191.894 59.0249 193.699 60.8291L205.766 72.896C211.142 78.2723 211.399 86.8285 206.533 92.5113C206.289 92.7944 206.034 93.0702 205.766 93.3378L197.737 101.368C197.441 101.663 197.133 101.946 196.818 102.209C191.14 106.999 182.644 106.716 177.295 101.368Z" fill="#83D9FF"/>
<path d="M187.166 66.3801C188.97 64.5759 191.895 64.5759 193.699 66.3801L205.766 78.447C207.881 80.5626 209.2 83.1707 209.73 85.9017C210.621 81.3389 209.3 76.43 205.766 72.896L193.699 60.8291C191.895 59.0249 188.97 59.0249 187.166 60.8291C185.517 62.4781 185.38 65.0611 186.746 66.871C186.874 66.7012 187.012 66.5346 187.166 66.3801Z" fill="#5FC9ED"/>
<path d="M173.926 97.7753C176.929 96.394 180.476 97.0345 182.813 99.3717C184.557 101.115 187.383 101.115 189.127 99.3717L198.219 90.2793C199.841 88.6578 199.952 86.0998 198.557 84.3474C198.452 84.4792 198.341 84.6069 198.219 84.7291L189.127 93.8206C187.383 95.5642 184.557 95.5642 182.813 93.8206L178.763 89.7714C177.579 90.4701 176.372 91.1082 175.139 91.6824C173.37 92.5113 171.555 93.2125 169.711 93.7842L173.772 97.8448C173.807 97.8294 173.859 97.806 173.926 97.7753Z" fill="#5FC9ED"/>
<path d="M190.634 85.9389C190.319 86.2511 189.908 86.4096 189.497 86.4096C189.087 86.4096 188.676 86.2511 188.364 85.9389L186.425 84.0004C186.421 83.9964 186.417 83.9899 186.412 83.985C186.688 83.7263 186.962 83.4594 187.231 83.1893C187.341 83.0809 187.45 82.9733 187.557 82.8625C187.931 82.4792 188.3 82.0902 188.655 81.6964C188.668 81.7069 188.68 81.7174 188.693 81.7303L190.634 83.6688C191.258 84.2956 191.258 85.3121 190.634 85.9389Z" fill="#2F5066"/>
<path d="M192.148 90.7993L195.114 87.8329C196.976 85.9713 199.995 85.9713 201.856 87.8329L207.675 93.6524C209.537 95.5141 209.537 98.5322 207.675 100.394L204.709 103.36C202.848 105.222 199.829 105.222 197.967 103.36L192.148 97.5407C190.287 95.6791 190.287 92.661 192.148 90.7993Z" fill="#FECBAA"/>
<path d="M195.389 94.039L198.354 91.0734C200.216 89.2118 203.235 89.2118 205.097 91.0734L207.675 93.6516C209.537 95.5133 209.537 98.5322 207.675 100.394L204.709 103.359C202.848 105.221 199.829 105.221 197.967 103.359L195.389 100.781C193.527 98.9196 193.527 95.9007 195.389 94.039Z" fill="#C97F4C"/>
<path d="M138.861 14.3086C137.627 14.8844 136.421 15.5217 135.237 16.2212C132.529 17.8233 129.961 19.7512 127.589 22.0059C127.311 22.2647 127.04 22.53 126.768 22.8017C126.659 22.9109 126.552 23.0176 126.444 23.1293C126.07 23.5142 125.702 23.904 125.347 24.297C123.238 26.6124 121.432 29.1048 119.924 31.7186C119.273 32.8549 118.676 34.0121 118.139 35.1888L107.372 24.4216L128.173 3.61981L138.861 14.3086Z" fill="#4F7693"/>
<path d="M136.705 4.62424L144.289 12.2076C142.445 12.7793 140.63 13.4805 138.861 14.3094C137.628 14.8836 136.421 15.5217 135.237 16.2204L131.187 12.1712C129.443 10.4276 126.617 10.4276 124.873 12.1712L115.781 21.2627C114.038 23.0063 114.038 25.8336 115.781 27.5772L126.834 38.6299C128.638 40.4341 128.638 43.3593 126.834 45.1627C125.031 46.9669 122.106 46.9669 120.301 45.1627L108.234 33.0959C102.858 27.7195 102.601 19.1633 107.467 13.4805C107.711 13.1974 107.966 12.9217 108.234 12.654L116.263 4.62424C116.559 4.32906 116.868 4.04601 117.182 3.78237C122.86 -1.00685 131.356 -0.724604 136.705 4.62424Z" fill="#83D9FF"/>
<path d="M115.781 27.5772C115.599 27.3944 115.439 27.1979 115.295 26.9941C114.061 28.7369 114.22 31.163 115.781 32.7238L126.834 43.7774C127.05 43.9933 127.238 44.2262 127.403 44.4704C128.611 42.6743 128.422 40.2182 126.834 38.6299L115.781 27.5772Z" fill="#5FC9ED"/>
<path d="M107.467 18.6279C107.711 18.3449 107.966 18.0683 108.234 17.8006L116.263 9.77171C116.559 9.47572 116.868 9.19348 117.182 8.92984C122.86 4.13982 131.357 4.42287 136.705 9.77171L140.514 13.5791C141.754 13.0608 143.014 12.6022 144.289 12.2076L136.705 4.62424C131.356 -0.724604 122.86 -1.00685 117.182 3.78237C116.868 4.04601 116.559 4.32906 116.263 4.62424L108.234 12.6532C107.966 12.9208 107.711 13.1974 107.467 13.4805C104.56 16.8755 103.482 21.2959 104.232 25.4519C104.674 22.9966 105.749 20.6328 107.467 18.6279Z" fill="#5FC9ED"/>
<path d="M127.589 22.0059C127.31 22.2647 127.039 22.53 126.767 22.8017C126.658 22.9109 126.551 23.0177 126.444 23.1293C126.07 23.5142 125.702 23.904 125.347 24.297C125.332 24.2865 125.319 24.2736 125.307 24.2606L123.368 22.3222C122.741 21.6954 122.741 20.6797 123.368 20.0529C123.995 19.4253 125.011 19.4253 125.638 20.0529L127.577 21.9914C127.581 21.9954 127.585 22.0019 127.589 22.0059Z" fill="#2F5066"/>
<path d="M121.852 15.1925L118.885 18.1589C117.024 20.0205 114.006 20.0205 112.144 18.1589L106.325 12.3402C104.464 10.4785 104.464 7.45959 106.325 5.59793L109.291 2.63237C111.152 0.770707 114.171 0.770707 116.033 2.63237L121.852 8.45107C123.713 10.3127 123.713 13.3309 121.852 15.1925Z" fill="#FECBAA"/>
<path d="M118.125 11.466L115.159 14.4323C113.297 16.294 110.279 16.294 108.417 14.4323L106.325 12.3402C104.464 10.4785 104.464 7.45959 106.325 5.59793L109.291 2.63237C111.152 0.770707 114.171 0.770707 116.033 2.63237L118.125 4.72451C119.987 6.58618 119.987 9.6043 118.125 11.466Z" fill="#C97F4C"/>
<path d="M146.869 71.5211L139.02 78.4809C138.44 78.9945 137.552 78.9411 137.038 78.3604L133.936 74.8611L131.808 72.4601L128.539 68.7715C128.025 68.1925 128.079 67.3061 128.658 66.7926L136.51 59.8336C137.09 59.3201 137.976 59.3734 138.489 59.9533L141.694 63.5666L143.823 65.9693L146.989 69.5398C147.502 70.1196 147.449 71.0076 146.869 71.5211Z" fill="white"/>
<path d="M185.95 39.7661L174.688 49.7489C174.007 50.3522 172.966 50.2899 172.362 49.609L164.189 40.3872C163.585 39.7063 163.648 38.6655 164.329 38.0614L175.59 28.0794C176.271 27.4761 177.312 27.5384 177.915 28.2193L186.089 37.4411C186.694 38.122 186.63 39.1628 185.95 39.7661Z" fill="white"/>
<path d="M143.823 65.9693L133.945 74.8547C133.943 74.8563 133.939 74.8587 133.937 74.8611L131.808 72.4601L141.684 63.5755C141.688 63.5731 141.69 63.569 141.694 63.5666L143.823 65.9693Z" fill="#DAE2E8"/>
</g>
<path d="M12.4688 166.352C11.5 166.352 10.4375 166.211 9.28125 165.93C8.14062 165.648 7.05469 165.062 6.02344 164.172C4.99219 163.281 4.14844 161.945 3.49219 160.164C2.83594 158.367 2.50781 155.969 2.50781 152.969V138.789C2.50781 136.383 2.72656 134.383 3.16406 132.789C3.61719 131.18 4.20312 129.898 4.92188 128.945C5.65625 127.977 6.46094 127.258 7.33594 126.789C8.22656 126.305 9.10938 125.992 9.98438 125.852C10.875 125.695 11.6953 125.617 12.4453 125.617C14.5078 125.617 16.1406 126 17.3438 126.766C18.5469 127.531 19.4062 128.562 19.9219 129.859C20.4531 131.141 20.7188 132.555 20.7188 134.102C20.7188 134.961 20.6484 135.758 20.5078 136.492C20.3828 137.211 20.2344 138.008 20.0625 138.883H15.375V136.961C15.375 132.57 14.3438 130.375 12.2812 130.375C11.1719 130.375 10.3203 130.859 9.72656 131.828C9.14844 132.781 8.85938 134.539 8.85938 137.102V155.148C8.85938 157.633 9.14844 159.328 9.72656 160.234C10.3203 161.141 11.2344 161.594 12.4688 161.594C13.3281 161.594 14.0391 161.234 14.6016 160.516C15.1641 159.781 15.4453 158.609 15.4453 157V153.203H20.7656V156.906C20.7656 160.109 20.0547 162.484 18.6328 164.031C17.2109 165.578 15.1562 166.352 12.4688 166.352ZM34.1953 166.352C33.2266 166.352 32.1641 166.211 31.0078 165.93C29.8672 165.648 28.7812 165.062 27.75 164.172C26.7188 163.281 25.875 161.945 25.2188 160.164C24.5625 158.367 24.2344 155.969 24.2344 152.969V138.789C24.2344 136.383 24.4531 134.383 24.8906 132.789C25.3438 131.18 25.9297 129.898 26.6484 128.945C27.3828 127.977 28.1875 127.258 29.0625 126.789C29.9531 126.305 30.8438 125.992 31.7344 125.852C32.625 125.695 33.4453 125.617 34.1953 125.617C34.9141 125.617 35.7109 125.688 36.5859 125.828C37.4766 125.969 38.3594 126.273 39.2344 126.742C40.1094 127.195 40.9062 127.898 41.625 128.852C42.3594 129.805 42.9453 131.086 43.3828 132.695C43.8359 134.305 44.0625 136.336 44.0625 138.789V152.969C44.0625 155.938 43.7188 158.312 43.0312 160.094C42.3438 161.875 41.4766 163.219 40.4297 164.125C39.3828 165.016 38.2969 165.609 37.1719 165.906C36.0625 166.203 35.0703 166.352 34.1953 166.352ZM34.1953 161.594C35.3984 161.594 36.2891 161.141 36.8672 160.234C37.4453 159.328 37.7344 157.633 37.7344 155.148V137.102C37.7344 134.539 37.4453 132.781 36.8672 131.828C36.2891 130.859 35.3984 130.375 34.1953 130.375C32.9609 130.375 32.0469 130.859 31.4531 131.828C30.875 132.781 30.5859 134.539 30.5859 137.102V155.148C30.5859 157.633 30.875 159.328 31.4531 160.234C32.0469 161.141 32.9609 161.594 34.1953 161.594ZM50.0391 125.969H54.8438L64.6172 152.289H64.7578C64.6953 151.461 64.6094 150.539 64.5 149.523C64.4062 148.492 64.3203 147.258 64.2422 145.82C64.1641 144.383 64.125 142.633 64.125 140.57V125.969H69.5156V166H64.6641L54.9375 140.383H54.75C54.8281 141.32 54.9141 142.344 55.0078 143.453C55.1016 144.562 55.1875 145.961 55.2656 147.648C55.3438 149.336 55.3828 151.531 55.3828 154.234V166H50.0391V125.969ZM76.1484 125.969H91.4531V130.938H82.2188V142.727H89.4609V147.508H82.2188V166H76.1484V125.969ZM94.7109 125.969H110.016V130.75H100.781V142.727H108.023V147.508H100.781V161.219H110.016V166H94.7109V125.969ZM113.648 125.969H120.234C121.156 125.969 122.172 126.023 123.281 126.133C124.391 126.242 125.492 126.492 126.586 126.883C127.68 127.258 128.68 127.859 129.586 128.688C130.492 129.5 131.219 130.617 131.766 132.039C132.328 133.445 132.609 135.234 132.609 137.406V138.414C132.609 144.414 130.805 148.273 127.195 149.992L133.781 166H127.312L121.805 151.023H119.719V166H113.648V125.969ZM120.516 146.641C122.734 146.641 124.258 146.125 125.086 145.094C125.93 144.062 126.352 142.203 126.352 139.516V136.352C126.352 134.289 125.953 132.773 125.156 131.805C124.375 130.836 122.828 130.352 120.516 130.352H119.719V146.641H120.516ZM138.398 125.969H153.703V130.75H144.469V142.727H151.711V147.508H144.469V161.219H153.703V166H138.398V125.969ZM166.078 166.352C165.109 166.352 164.047 166.211 162.891 165.93C161.75 165.648 160.664 165.062 159.633 164.172C158.602 163.281 157.758 161.945 157.102 160.164C156.445 158.367 156.117 155.969 156.117 152.969V138.789C156.117 136.383 156.336 134.383 156.773 132.789C157.227 131.18 157.812 129.898 158.531 128.945C159.266 127.977 160.07 127.258 160.945 126.789C161.836 126.305 162.719 125.992 163.594 125.852C164.484 125.695 165.305 125.617 166.055 125.617C168.117 125.617 169.75 126 170.953 126.766C172.156 127.531 173.016 128.562 173.531 129.859C174.062 131.141 174.328 132.555 174.328 134.102C174.328 134.961 174.258 135.758 174.117 136.492C173.992 137.211 173.844 138.008 173.672 138.883H168.984V136.961C168.984 132.57 167.953 130.375 165.891 130.375C164.781 130.375 163.93 130.859 163.336 131.828C162.758 132.781 162.469 134.539 162.469 137.102V155.148C162.469 157.633 162.758 159.328 163.336 160.234C163.93 161.141 164.844 161.594 166.078 161.594C166.938 161.594 167.648 161.234 168.211 160.516C168.773 159.781 169.055 158.609 169.055 157V153.203H174.375V156.906C174.375 160.109 173.664 162.484 172.242 164.031C170.82 165.578 168.766 166.352 166.078 166.352ZM178.664 125.969H193.969V130.75H184.734V142.727H191.977V147.508H184.734V161.219H193.969V166H178.664V125.969ZM208.242 125.969H214.828C215.75 125.969 216.766 126.023 217.875 126.133C218.984 126.242 220.086 126.492 221.18 126.883C222.273 127.258 223.273 127.859 224.18 128.688C225.086 129.5 225.812 130.617 226.359 132.039C226.922 133.445 227.203 135.234 227.203 137.406V138.414C227.203 144.414 225.398 148.273 221.789 149.992L228.375 166H221.906L216.398 151.023H214.312V166H208.242V125.969ZM215.109 146.641C217.328 146.641 218.852 146.125 219.68 145.094C220.523 144.062 220.945 142.203 220.945 139.516V136.352C220.945 134.289 220.547 132.773 219.75 131.805C218.969 130.836 217.422 130.352 215.109 130.352H214.312V146.641H215.109ZM242.18 166.352C241.211 166.352 240.148 166.211 238.992 165.93C237.852 165.648 236.766 165.062 235.734 164.172C234.703 163.281 233.859 161.945 233.203 160.164C232.547 158.367 232.219 155.969 232.219 152.969V138.789C232.219 136.383 232.438 134.383 232.875 132.789C233.328 131.18 233.914 129.898 234.633 128.945C235.367 127.977 236.172 127.258 237.047 126.789C237.938 126.305 238.828 125.992 239.719 125.852C240.609 125.695 241.43 125.617 242.18 125.617C242.898 125.617 243.695 125.688 244.57 125.828C245.461 125.969 246.344 126.273 247.219 126.742C248.094 127.195 248.891 127.898 249.609 128.852C250.344 129.805 250.93 131.086 251.367 132.695C251.82 134.305 252.047 136.336 252.047 138.789V152.969C252.047 155.938 251.703 158.312 251.016 160.094C250.328 161.875 249.461 163.219 248.414 164.125C247.367 165.016 246.281 165.609 245.156 165.906C244.047 166.203 243.055 166.352 242.18 166.352ZM242.18 161.594C243.383 161.594 244.273 161.141 244.852 160.234C245.43 159.328 245.719 157.633 245.719 155.148V137.102C245.719 134.539 245.43 132.781 244.852 131.828C244.273 130.859 243.383 130.375 242.18 130.375C240.945 130.375 240.031 130.859 239.438 131.828C238.859 132.781 238.57 134.539 238.57 137.102V155.148C238.57 157.633 238.859 159.328 239.438 160.234C240.031 161.141 240.945 161.594 242.18 161.594ZM267.352 166.352C266.383 166.352 265.32 166.211 264.164 165.93C263.023 165.648 261.938 165.062 260.906 164.172C259.875 163.281 259.031 161.945 258.375 160.164C257.719 158.367 257.391 155.969 257.391 152.969V138.789C257.391 136.383 257.609 134.383 258.047 132.789C258.5 131.18 259.086 129.898 259.805 128.945C260.539 127.977 261.344 127.258 262.219 126.789C263.109 126.305 264 125.992 264.891 125.852C265.781 125.695 266.602 125.617 267.352 125.617C268.07 125.617 268.867 125.688 269.742 125.828C270.633 125.969 271.516 126.273 272.391 126.742C273.266 127.195 274.062 127.898 274.781 128.852C275.516 129.805 276.102 131.086 276.539 132.695C276.992 134.305 277.219 136.336 277.219 138.789V152.969C277.219 155.938 276.875 158.312 276.188 160.094C275.5 161.875 274.633 163.219 273.586 164.125C272.539 165.016 271.453 165.609 270.328 165.906C269.219 166.203 268.227 166.352 267.352 166.352ZM267.352 161.594C268.555 161.594 269.445 161.141 270.023 160.234C270.602 159.328 270.891 157.633 270.891 155.148V137.102C270.891 134.539 270.602 132.781 270.023 131.828C269.445 130.859 268.555 130.375 267.352 130.375C266.117 130.375 265.203 130.859 264.609 131.828C264.031 132.781 263.742 134.539 263.742 137.102V155.148C263.742 157.633 264.031 159.328 264.609 160.234C265.203 161.141 266.117 161.594 267.352 161.594ZM283.195 125.969H290.719L294.727 142.164C295.148 143.867 295.477 145.508 295.711 147.086C295.945 148.648 296.164 150.109 296.367 151.469H296.555C296.773 150.109 296.992 148.648 297.211 147.086C297.445 145.508 297.773 143.867 298.195 142.164L302.156 125.969H309.68V166H304.242V152.758C304.242 150.039 304.273 147.484 304.336 145.094C304.414 142.703 304.5 140.609 304.594 138.812C304.703 137.016 304.797 135.648 304.875 134.711H304.43L298.383 160.844H294.539L288.445 134.711H288C288.094 135.648 288.188 137.016 288.281 138.812C288.375 140.609 288.453 142.703 288.516 145.094C288.594 147.484 288.633 150.039 288.633 152.758V166H283.195V125.969ZM2.20312 179.312H6.29688C7.20312 179.312 8.14062 179.37 9.10938 179.484C10.0781 179.599 10.9792 179.854 11.8125 180.25C12.6458 180.635 13.3177 181.234 13.8281 182.047C14.349 182.859 14.6094 183.964 14.6094 185.359V186.656C14.6094 188.073 14.2708 189.229 13.5938 190.125C12.9271 191.01 12.1823 191.604 11.3594 191.906V192.031C12.5677 192.51 13.4844 193.198 14.1094 194.094C14.7344 194.99 15.0469 196.229 15.0469 197.812V199.172C15.0469 200.62 14.8125 201.797 14.3438 202.703C13.8854 203.599 13.2552 204.286 12.4531 204.766C11.651 205.245 10.7344 205.573 9.70312 205.75C8.67188 205.917 7.58854 206 6.45312 206H2.20312V179.312ZM6.95312 190.734C8.03646 190.734 8.90104 190.469 9.54688 189.938C10.1927 189.396 10.5156 188.5 10.5156 187.25V186.156C10.5156 184.917 10.2552 183.958 9.73438 183.281C9.21354 182.604 8.28646 182.266 6.95312 182.266H6.25V190.734H6.95312ZM7.32812 203.047C8.41146 203.047 9.27083 202.781 9.90625 202.25C10.5521 201.708 10.875 200.812 10.875 199.562V197.484C10.875 196.234 10.6146 195.276 10.0938 194.609C9.58333 193.932 8.66146 193.594 7.32812 193.594H6.25V203.047H7.32812ZM32.8609 206.234C32.215 206.234 31.5067 206.141 30.7359 205.953C29.9755 205.766 29.2515 205.375 28.564 204.781C27.8765 204.188 27.314 203.297 26.8765 202.109C26.439 200.911 26.2202 199.312 26.2202 197.312V187.859C26.2202 186.255 26.3661 184.922 26.6577 183.859C26.9598 182.786 27.3505 181.932 27.8296 181.297C28.3192 180.651 28.8557 180.172 29.439 179.859C30.0327 179.536 30.6265 179.328 31.2202 179.234C31.814 179.13 32.3609 179.078 32.8609 179.078C33.34 179.078 33.8713 179.125 34.4546 179.219C35.0484 179.312 35.6369 179.516 36.2202 179.828C36.8036 180.13 37.3348 180.599 37.814 181.234C38.3036 181.87 38.6942 182.724 38.9859 183.797C39.288 184.87 39.439 186.224 39.439 187.859V197.312C39.439 199.292 39.2098 200.875 38.7515 202.062C38.2932 203.25 37.715 204.146 37.0171 204.75C36.3192 205.344 35.5952 205.74 34.8452 205.938C34.1057 206.135 33.4442 206.234 32.8609 206.234ZM32.8609 203.062C33.663 203.062 34.2567 202.76 34.6421 202.156C35.0275 201.552 35.2202 200.422 35.2202 198.766V186.734C35.2202 185.026 35.0275 183.854 34.6421 183.219C34.2567 182.573 33.663 182.25 32.8609 182.25C32.038 182.25 31.4286 182.573 31.0327 183.219C30.6473 183.854 30.4546 185.026 30.4546 186.734V198.766C30.4546 200.422 30.6473 201.552 31.0327 202.156C31.4286 202.76 32.038 203.062 32.8609 203.062ZM57.7061 206.234C57.0603 206.234 56.352 206.141 55.5811 205.953C54.8207 205.766 54.0967 205.375 53.4092 204.781C52.7217 204.188 52.1592 203.297 51.7217 202.109C51.2842 200.911 51.0655 199.312 51.0655 197.312V187.859C51.0655 186.255 51.2113 184.922 51.503 183.859C51.8051 182.786 52.1957 181.932 52.6749 181.297C53.1645 180.651 53.7009 180.172 54.2842 179.859C54.878 179.536 55.4717 179.328 56.0655 179.234C56.6592 179.13 57.2061 179.078 57.7061 179.078C58.1853 179.078 58.7165 179.125 59.2999 179.219C59.8936 179.312 60.4822 179.516 61.0655 179.828C61.6488 180.13 62.1801 180.599 62.6592 181.234C63.1488 181.87 63.5395 182.724 63.8311 183.797C64.1332 184.87 64.2842 186.224 64.2842 187.859V197.312C64.2842 199.292 64.0551 200.875 63.5967 202.062C63.1384 203.25 62.5603 204.146 61.8624 204.75C61.1645 205.344 60.4405 205.74 59.6905 205.938C58.9509 206.135 58.2895 206.234 57.7061 206.234ZM57.7061 203.062C58.5082 203.062 59.102 202.76 59.4874 202.156C59.8728 201.552 60.0655 200.422 60.0655 198.766V186.734C60.0655 185.026 59.8728 183.854 59.4874 183.219C59.102 182.573 58.5082 182.25 57.7061 182.25C56.8832 182.25 56.2738 182.573 55.878 183.219C55.4926 183.854 55.2999 185.026 55.2999 186.734V198.766C55.2999 200.422 55.4926 201.552 55.878 202.156C56.2738 202.76 56.8832 203.062 57.7061 203.062ZM76.3326 179.312H80.3795V190.969H80.5045L85.1295 179.312H89.1608L84.0201 191.828L89.7389 206H85.4108L80.5045 193.297H80.3795V206H76.3326V179.312ZM100.022 179.312H104.068V206H100.022V179.312ZM116.554 179.312H119.757L126.273 196.859H126.367C126.325 196.307 126.268 195.693 126.195 195.016C126.132 194.328 126.075 193.505 126.023 192.547C125.971 191.589 125.945 190.422 125.945 189.047V179.312H129.539V206H126.304L119.82 188.922H119.695C119.747 189.547 119.804 190.229 119.867 190.969C119.929 191.708 119.987 192.641 120.039 193.766C120.091 194.891 120.117 196.354 120.117 198.156V206H116.554V179.312ZM147.587 206.25C147.212 206.25 146.764 206.193 146.243 206.078C145.733 205.964 145.207 205.74 144.665 205.406C144.134 205.073 143.634 204.578 143.165 203.922C142.707 203.266 142.332 202.401 142.04 201.328C141.759 200.255 141.618 198.917 141.618 197.312V187.859C141.618 186.255 141.769 184.922 142.072 183.859C142.374 182.786 142.769 181.932 143.259 181.297C143.759 180.651 144.311 180.172 144.915 179.859C145.519 179.536 146.124 179.328 146.728 179.234C147.332 179.13 147.889 179.078 148.4 179.078C149.848 179.078 150.993 179.333 151.837 179.844C152.691 180.354 153.301 181.042 153.665 181.906C154.04 182.76 154.228 183.703 154.228 184.734C154.228 185.307 154.186 185.839 154.103 186.328C154.019 186.807 153.92 187.339 153.806 187.922H150.681V186.641C150.681 183.714 149.884 182.25 148.29 182.25C147.436 182.25 146.816 182.573 146.431 183.219C146.045 183.854 145.853 185.026 145.853 186.734V198.766C145.853 200.422 146.051 201.557 146.447 202.172C146.842 202.776 147.467 203.078 148.322 203.078C149.217 203.078 149.868 202.646 150.275 201.781C150.681 200.906 150.884 199.828 150.884 198.547V195.141H148.806V192.484H154.759V206H152.134L151.697 203.453C151.322 204.193 150.769 204.844 150.04 205.406C149.311 205.969 148.493 206.25 147.587 206.25ZM180.09 200.594C180.09 200.021 180.121 199.49 180.184 199C180.257 198.51 180.361 197.99 180.496 197.438H183.637V198.625C183.637 200.062 183.856 201.167 184.293 201.938C184.731 202.698 185.403 203.078 186.309 203.078C187.871 203.078 188.653 202.312 188.653 200.781C188.653 200.188 188.522 199.562 188.262 198.906C188.012 198.25 187.517 197.448 186.778 196.5L182.559 191.203C181.819 190.245 181.241 189.286 180.824 188.328C180.418 187.37 180.215 186.302 180.215 185.125C180.215 183.354 180.762 181.906 181.856 180.781C182.96 179.646 184.486 179.078 186.434 179.078C188.007 179.078 189.241 179.365 190.137 179.938C191.033 180.5 191.663 181.214 192.028 182.078C192.403 182.943 192.59 183.828 192.59 184.734C192.59 185.307 192.543 185.839 192.449 186.328C192.366 186.807 192.267 187.339 192.153 187.922H189.028V186.641C189.028 185.234 188.804 184.151 188.356 183.391C187.908 182.63 187.267 182.25 186.434 182.25C185.673 182.25 185.095 182.464 184.699 182.891C184.314 183.307 184.121 183.87 184.121 184.578C184.121 185.182 184.246 185.734 184.496 186.234C184.746 186.724 185.064 187.229 185.449 187.75L190.153 193.719C191.017 194.833 191.673 195.896 192.121 196.906C192.58 197.906 192.809 199.021 192.809 200.25C192.809 202.094 192.22 203.557 191.043 204.641C189.866 205.714 188.298 206.25 186.34 206.25C184.736 206.25 183.476 205.979 182.559 205.438C181.653 204.885 181.012 204.177 180.637 203.312C180.272 202.448 180.09 201.542 180.09 200.594ZM206.889 196.641L201.67 179.312H205.748L208.842 192.188H209.029L212.123 179.312H216.185L210.935 196.641V206H206.889V196.641ZM225.124 200.594C225.124 200.021 225.156 199.49 225.218 199C225.291 198.51 225.395 197.99 225.531 197.438H228.671V198.625C228.671 200.062 228.89 201.167 229.327 201.938C229.765 202.698 230.437 203.078 231.343 203.078C232.906 203.078 233.687 202.312 233.687 200.781C233.687 200.188 233.557 199.562 233.296 198.906C233.046 198.25 232.551 197.448 231.812 196.5L227.593 191.203C226.854 190.245 226.275 189.286 225.859 188.328C225.452 187.37 225.249 186.302 225.249 185.125C225.249 183.354 225.796 181.906 226.89 180.781C227.994 179.646 229.52 179.078 231.468 179.078C233.041 179.078 234.275 179.365 235.171 179.938C236.067 180.5 236.697 181.214 237.062 182.078C237.437 182.943 237.624 183.828 237.624 184.734C237.624 185.307 237.577 185.839 237.484 186.328C237.4 186.807 237.301 187.339 237.187 187.922H234.062V186.641C234.062 185.234 233.838 184.151 233.39 183.391C232.942 182.63 232.301 182.25 231.468 182.25C230.708 182.25 230.13 182.464 229.734 182.891C229.348 183.307 229.156 183.87 229.156 184.578C229.156 185.182 229.281 185.734 229.531 186.234C229.781 186.724 230.098 187.229 230.484 187.75L235.187 193.719C236.051 194.833 236.708 195.896 237.156 196.906C237.614 197.906 237.843 199.021 237.843 200.25C237.843 202.094 237.255 203.557 236.077 204.641C234.9 205.714 233.333 206.25 231.374 206.25C229.77 206.25 228.51 205.979 227.593 205.438C226.687 204.885 226.046 204.177 225.671 203.312C225.307 202.448 225.124 201.542 225.124 200.594ZM251.313 182.5H247.016V179.312H259.641V182.5H255.36V206H251.313V182.5ZM269.877 179.312H280.081V182.5H273.924V190.484H278.752V193.672H273.924V202.812H280.081V206H269.877V179.312ZM290.566 179.312H295.582L298.254 190.109C298.535 191.245 298.754 192.339 298.91 193.391C299.066 194.432 299.212 195.406 299.348 196.312H299.473C299.618 195.406 299.764 194.432 299.91 193.391C300.066 192.339 300.285 191.245 300.566 190.109L303.207 179.312H308.223V206H304.598V197.172C304.598 195.359 304.618 193.656 304.66 192.062C304.712 190.469 304.77 189.073 304.832 187.875C304.905 186.677 304.967 185.766 305.02 185.141H304.723L300.691 202.562H298.129L294.066 185.141H293.77C293.832 185.766 293.895 186.677 293.957 187.875C294.02 189.073 294.072 190.469 294.113 192.062C294.165 193.656 294.191 195.359 294.191 197.172V206H290.566V179.312Z" fill="#FE7743"/>
<defs>
<clipPath id="clip0_135_4">
<rect width="106" height="106" fill="white" transform="translate(104)"/>
</clipPath>
</defs>
</svg>
