<svg width="340" height="215" viewBox="0 0 340 215" fill="none" xmlns="http://www.w3.org/2000/svg">
<g clip-path="url(#clip0_135_4)">
<path d="M139.198 91.8628L128.43 102.628L107.63 81.829L118.319 71.1378C118.892 72.3727 119.53 73.5793 120.229 74.7641C121.834 77.4709 133.113 88.5681 135.729 90.0763C136.863 90.7265 138.023 91.3233 139.198 91.8628Z" fill="#4F7693"/>
<path d="M199.715 52.9805C199.715 76.5788 180.584 95.709 156.986 95.709C133.389 95.709 114.259 76.5788 114.259 52.9805C114.259 29.3822 133.389 10.2529 156.986 10.2529C180.584 10.2529 199.715 29.3822 199.715 52.9805Z" fill="#FECBAA"/>
<path d="M187.2 22.7678C184.461 20.0294 181.443 17.7432 178.238 15.9042C188.826 32.44 186.897 54.6724 172.442 69.1273C158.494 83.0752 137.302 85.3615 120.977 75.9909C122.611 78.544 124.541 80.9621 126.773 83.1941C143.46 99.8803 170.514 99.8803 187.2 83.1941C203.886 66.5079 203.886 39.454 187.2 22.7678Z" fill="#FFAE85"/>
<path d="M108.632 73.2947L116.216 65.7121C116.788 67.5552 119.53 73.5793 120.229 74.7633L116.179 78.8133C114.436 80.5569 114.436 83.3834 116.179 85.127L125.272 94.2193C127.015 95.9629 129.842 95.9629 131.585 94.2193L142.639 83.1658C144.442 81.3624 147.367 81.3624 149.171 83.1658C150.975 84.9701 150.975 87.8952 149.171 89.6986L137.104 101.766C131.728 107.142 123.172 107.399 117.489 102.534C117.206 102.289 116.93 102.034 116.662 101.766L108.633 93.7365C108.337 93.4414 108.055 93.1332 107.791 92.8178C103.001 87.1399 103.284 78.6435 108.632 73.2947Z" fill="#FF84A7"/>
<path d="M206.379 24.1733L195.691 34.8621C195.117 33.628 194.478 32.4214 193.78 31.2358C192.176 28.5299 190.249 25.9622 187.993 23.5894C187.734 23.3136 187.469 23.0395 187.197 22.7678C187.091 22.6586 186.981 22.5502 186.87 22.4451C186.487 22.0706 186.098 21.7027 185.705 21.3452C183.389 19.2385 180.897 17.4327 178.28 15.9244C177.144 15.2734 175.987 14.6774 174.81 14.1396L185.578 3.37234L206.379 24.1733Z" fill="#4F7693"/>
<path d="M205.376 32.7052L197.793 40.2886C197.221 38.4455 196.519 36.6299 195.69 34.8613C195.116 33.628 194.479 32.4206 193.779 31.2366L197.83 27.1866C199.572 25.4438 199.572 22.6165 197.83 20.8729L188.737 11.7814C186.994 10.0378 184.167 10.0378 182.424 11.7814L171.37 22.8341C169.566 24.6383 166.641 24.6383 164.837 22.8341C163.034 21.0306 163.034 18.1055 164.837 16.3013L176.905 4.23443C182.28 -1.1419 190.837 -1.39907 196.519 3.46696C196.802 3.7112 197.079 3.96675 197.347 4.23443L205.376 12.2634C205.671 12.5593 205.954 12.8675 206.218 13.1821C211.007 18.86 210.724 27.3572 205.376 32.7052Z" fill="#FF84A7"/>
<path d="M164.837 21.6097L176.905 9.54203C182.281 4.16569 190.838 3.90933 196.52 8.77456C196.803 9.0196 197.079 9.27435 197.347 9.54203L205.376 17.5718C205.672 17.8669 205.954 18.1751 206.218 18.4897C207.872 20.4508 208.92 22.7475 209.364 25.1349C210.133 20.9934 209.086 16.5827 206.218 13.1821C205.954 12.8675 205.672 12.5593 205.376 12.2634L197.347 4.23443C197.079 3.96675 196.803 3.7112 196.52 3.46696C190.838 -1.39907 182.281 -1.1419 176.905 4.23443L164.837 16.3013C163.226 17.9138 163.058 20.4192 164.329 22.2219C164.479 22.0076 164.646 21.8013 164.837 21.6097Z" fill="#EF6085"/>
<path d="M198.256 26.6844C198.126 26.859 197.987 27.0289 197.83 27.1866L193.78 31.2366C194.45 32.3712 195.061 33.5277 195.617 34.7076L197.83 32.495C199.415 30.9099 199.553 28.432 198.256 26.6844Z" fill="#EF6085"/>
<path d="M189.947 21.6364L188.009 23.5765C188.004 23.5813 187.998 23.5854 187.993 23.5894C187.734 23.3136 187.469 23.0395 187.197 22.7678C187.091 22.6586 186.982 22.5502 186.87 22.4451C186.487 22.0706 186.098 21.7027 185.705 21.3452C185.715 21.3323 185.726 21.3202 185.739 21.3072L187.679 19.3687C188.306 18.742 189.32 18.742 189.947 19.3687C190.574 19.9955 190.574 21.0112 189.947 21.6364Z" fill="#2F5066"/>
<path d="M194.807 17.8524L191.841 14.886C189.979 13.0244 189.979 10.0054 191.841 8.14376L197.661 2.32506C199.522 0.463395 202.54 0.463395 204.402 2.32506L207.368 5.29061C209.23 7.15228 209.23 10.1712 207.368 12.0329L201.549 17.8516C199.687 19.714 196.669 19.714 194.807 17.8524Z" fill="#FECBAA"/>
<path d="M198.049 14.6102L195.082 11.6447C193.221 9.78303 193.221 6.76409 195.082 4.90243L197.66 2.32506C199.522 0.463395 202.54 0.463395 204.402 2.32506L207.368 5.29142C209.23 7.15308 209.23 10.1712 207.368 12.0329L204.79 14.6102C202.928 16.4719 199.91 16.4719 198.049 14.6102Z" fill="#C97F4C"/>
<path d="M115.286 83.8379L114.884 84.2406C113.14 85.9842 113.14 88.8107 114.884 90.5543L123.976 99.6466C125.719 101.389 128.546 101.389 130.29 99.6466L141.342 88.5931C143.147 86.7889 146.071 86.7889 147.875 88.5931C148.3 89.0177 148.62 89.5054 148.845 90.0246L149.171 89.6986C150.975 87.8952 150.975 84.9701 149.171 83.1658C147.367 81.3624 144.442 81.3624 142.638 83.1658L131.585 94.2194C129.842 95.9629 127.015 95.9629 125.272 94.2194L116.179 85.127C115.795 84.7428 115.501 84.3045 115.286 83.8379Z" fill="#EF6085"/>
<path d="M107.337 78.7219L110.685 75.3747C112.611 73.4483 115.845 74.046 116.997 76.5133C117.006 76.5311 117.014 76.5489 117.022 76.5667C117.17 76.8837 117.322 77.1999 117.479 77.5137L120.229 74.7641C119.53 73.5801 118.892 72.3719 118.318 71.1394C117.489 69.3708 116.788 67.5552 116.216 65.7121L108.632 73.2947C105.957 75.9699 104.549 79.4328 104.41 82.937C105.107 81.4101 106.08 79.9787 107.337 78.7219Z" fill="#EF6085"/>
<path d="M128.304 84.6547C128.293 84.6676 128.283 84.6806 128.269 84.6935L126.33 86.632C126.017 86.9466 125.606 87.1027 125.195 87.1027C124.787 87.1027 124.376 86.9466 124.061 86.632C123.434 86.0052 123.434 84.9911 124.061 84.3643L126 82.4234C126.004 82.4194 126.01 82.4153 126.014 82.4105C126.273 82.6871 126.538 82.9604 126.81 83.2321C126.919 83.3413 127.028 83.4505 127.137 83.5556C127.521 83.9301 127.91 84.298 128.304 84.6547Z" fill="#2F5066"/>
<path d="M119.201 88.1483L122.168 91.1147C124.029 92.9764 124.029 95.9945 122.168 97.8561L116.348 103.676C114.487 105.537 111.468 105.537 109.607 103.676L106.64 100.709C104.779 98.8476 104.779 95.8295 106.64 93.9678L112.459 88.1483C114.321 86.2867 117.34 86.2867 119.201 88.1483Z" fill="#FECBAA"/>
<path d="M115.999 91.3508L118.964 94.3164C120.826 96.1781 120.826 99.197 118.964 101.059L116.348 103.676C114.487 105.537 111.468 105.537 109.606 103.676L106.64 100.709C104.779 98.8476 104.779 95.8287 106.64 93.9678L109.257 91.3508C111.119 89.4892 114.137 89.4892 115.999 91.3508Z" fill="#C97F4C"/>
<path d="M206.628 81.5702L185.828 102.372L175.139 91.6832C176.372 91.1074 177.578 90.4701 178.764 89.7706C181.472 88.1677 184.039 86.2406 186.412 83.985C186.688 83.7263 186.962 83.4594 187.231 83.1893C187.34 83.0809 187.45 82.9733 187.556 82.8626C187.931 82.4792 188.299 82.0902 188.654 81.6964C190.761 79.3818 192.567 76.8894 194.075 74.2724C194.726 73.1369 195.323 71.9789 195.862 70.8022L206.628 81.5702Z" fill="#4F7693"/>
<path d="M177.295 101.368L169.711 93.7843C171.555 93.2125 173.37 92.5113 175.139 91.6824C176.372 91.1082 177.579 90.4701 178.763 89.7714L182.813 93.8207C184.557 95.5642 187.383 95.5642 189.127 93.8207L198.219 84.7291C199.962 82.9855 199.962 80.1582 198.219 78.4146L187.166 67.3619C185.362 65.5577 185.362 62.6326 187.166 60.8291C188.97 59.0249 191.894 59.0249 193.699 60.8291L205.766 72.896C211.142 78.2723 211.399 86.8285 206.533 92.5113C206.289 92.7944 206.034 93.0702 205.766 93.3378L197.737 101.368C197.441 101.663 197.133 101.946 196.818 102.209C191.14 106.999 182.644 106.716 177.295 101.368Z" fill="#83D9FF"/>
<path d="M187.166 66.3801C188.97 64.5759 191.895 64.5759 193.699 66.3801L205.766 78.447C207.881 80.5626 209.2 83.1707 209.73 85.9017C210.621 81.3389 209.3 76.43 205.766 72.896L193.699 60.8291C191.895 59.0249 188.97 59.0249 187.166 60.8291C185.517 62.4781 185.38 65.0611 186.746 66.871C186.874 66.7012 187.012 66.5346 187.166 66.3801Z" fill="#5FC9ED"/>
<path d="M173.926 97.7753C176.929 96.394 180.476 97.0345 182.813 99.3717C184.557 101.115 187.383 101.115 189.127 99.3717L198.219 90.2793C199.841 88.6578 199.952 86.0998 198.557 84.3474C198.452 84.4792 198.341 84.6069 198.219 84.7291L189.127 93.8206C187.383 95.5642 184.557 95.5642 182.813 93.8206L178.763 89.7714C177.579 90.4701 176.372 91.1082 175.139 91.6824C173.37 92.5113 171.555 93.2125 169.711 93.7842L173.772 97.8448C173.807 97.8294 173.859 97.806 173.926 97.7753Z" fill="#5FC9ED"/>
<path d="M190.634 85.9389C190.319 86.2511 189.908 86.4096 189.497 86.4096C189.087 86.4096 188.676 86.2511 188.364 85.9389L186.425 84.0004C186.421 83.9964 186.417 83.9899 186.412 83.985C186.688 83.7263 186.962 83.4594 187.231 83.1893C187.341 83.0809 187.45 82.9733 187.557 82.8625C187.931 82.4792 188.3 82.0902 188.655 81.6964C188.668 81.7069 188.68 81.7174 188.693 81.7303L190.634 83.6688C191.258 84.2956 191.258 85.3121 190.634 85.9389Z" fill="#2F5066"/>
<path d="M192.148 90.7993L195.114 87.8329C196.976 85.9713 199.995 85.9713 201.856 87.8329L207.675 93.6524C209.537 95.5141 209.537 98.5322 207.675 100.394L204.709 103.36C202.848 105.222 199.829 105.222 197.967 103.36L192.148 97.5407C190.287 95.6791 190.287 92.661 192.148 90.7993Z" fill="#FECBAA"/>
<path d="M195.389 94.039L198.354 91.0734C200.216 89.2118 203.235 89.2118 205.097 91.0734L207.675 93.6516C209.537 95.5133 209.537 98.5322 207.675 100.394L204.709 103.359C202.848 105.221 199.829 105.221 197.967 103.359L195.389 100.781C193.527 98.9196 193.527 95.9007 195.389 94.039Z" fill="#C97F4C"/>
<path d="M138.861 14.3086C137.627 14.8844 136.421 15.5217 135.237 16.2212C132.529 17.8233 129.961 19.7512 127.589 22.0059C127.311 22.2647 127.04 22.53 126.768 22.8017C126.659 22.9109 126.552 23.0176 126.444 23.1293C126.07 23.5142 125.702 23.904 125.347 24.297C123.238 26.6124 121.432 29.1048 119.924 31.7186C119.273 32.8549 118.676 34.0121 118.139 35.1888L107.372 24.4216L128.173 3.61981L138.861 14.3086Z" fill="#4F7693"/>
<path d="M136.705 4.62424L144.289 12.2076C142.445 12.7793 140.63 13.4805 138.861 14.3094C137.628 14.8836 136.421 15.5217 135.237 16.2204L131.187 12.1712C129.443 10.4276 126.617 10.4276 124.873 12.1712L115.781 21.2627C114.038 23.0063 114.038 25.8336 115.781 27.5772L126.834 38.6299C128.638 40.4341 128.638 43.3593 126.834 45.1627C125.031 46.9669 122.106 46.9669 120.301 45.1627L108.234 33.0959C102.858 27.7195 102.601 19.1633 107.467 13.4805C107.711 13.1974 107.966 12.9217 108.234 12.654L116.263 4.62424C116.559 4.32906 116.868 4.04601 117.182 3.78237C122.86 -1.00685 131.356 -0.724604 136.705 4.62424Z" fill="#83D9FF"/>
<path d="M115.781 27.5772C115.599 27.3944 115.439 27.1979 115.295 26.9941C114.061 28.7369 114.22 31.163 115.781 32.7238L126.834 43.7774C127.05 43.9933 127.238 44.2262 127.403 44.4704C128.611 42.6743 128.422 40.2182 126.834 38.6299L115.781 27.5772Z" fill="#5FC9ED"/>
<path d="M107.467 18.6279C107.711 18.3449 107.966 18.0683 108.234 17.8006L116.263 9.77171C116.559 9.47572 116.868 9.19348 117.182 8.92984C122.86 4.13982 131.357 4.42287 136.705 9.77171L140.514 13.5791C141.754 13.0608 143.014 12.6022 144.289 12.2076L136.705 4.62424C131.356 -0.724604 122.86 -1.00685 117.182 3.78237C116.868 4.04601 116.559 4.32906 116.263 4.62424L108.234 12.6532C107.966 12.9208 107.711 13.1974 107.467 13.4805C104.56 16.8755 103.482 21.2959 104.232 25.4519C104.674 22.9966 105.749 20.6328 107.467 18.6279Z" fill="#5FC9ED"/>
<path d="M127.589 22.0059C127.31 22.2647 127.039 22.53 126.767 22.8017C126.658 22.9109 126.551 23.0177 126.444 23.1293C126.07 23.5142 125.702 23.904 125.347 24.297C125.332 24.2865 125.319 24.2736 125.307 24.2606L123.368 22.3222C122.741 21.6954 122.741 20.6797 123.368 20.0529C123.995 19.4253 125.011 19.4253 125.638 20.0529L127.577 21.9914C127.581 21.9954 127.585 22.0019 127.589 22.0059Z" fill="#2F5066"/>
<path d="M121.852 15.1925L118.885 18.1589C117.024 20.0205 114.006 20.0205 112.144 18.1589L106.325 12.3402C104.464 10.4785 104.464 7.45959 106.325 5.59793L109.291 2.63237C111.152 0.770707 114.171 0.770707 116.033 2.63237L121.852 8.45107C123.713 10.3127 123.713 13.3309 121.852 15.1925Z" fill="#FECBAA"/>
<path d="M118.125 11.466L115.159 14.4323C113.297 16.294 110.279 16.294 108.417 14.4323L106.325 12.3402C104.464 10.4785 104.464 7.45959 106.325 5.59793L109.291 2.63237C111.152 0.770707 114.171 0.770707 116.033 2.63237L118.125 4.72451C119.987 6.58618 119.987 9.6043 118.125 11.466Z" fill="#C97F4C"/>
<path d="M146.869 71.5211L139.02 78.4809C138.44 78.9945 137.552 78.9411 137.038 78.3604L133.936 74.8611L131.808 72.4601L128.539 68.7715C128.025 68.1925 128.079 67.3061 128.658 66.7926L136.51 59.8336C137.09 59.3201 137.976 59.3734 138.489 59.9533L141.694 63.5666L143.823 65.9693L146.989 69.5398C147.502 70.1196 147.449 71.0076 146.869 71.5211Z" fill="white"/>
<path d="M185.95 39.7661L174.688 49.7489C174.007 50.3522 172.966 50.2899 172.362 49.609L164.189 40.3872C163.585 39.7063 163.648 38.6655 164.329 38.0614L175.59 28.0794C176.271 27.4761 177.312 27.5384 177.915 28.2193L186.089 37.4411C186.694 38.122 186.63 39.1628 185.95 39.7661Z" fill="white"/>
<path d="M143.823 65.9693L133.945 74.8547C133.943 74.8563 133.939 74.8587 133.937 74.8611L131.808 72.4601L141.684 63.5755C141.688 63.5731 141.69 63.569 141.694 63.5666L143.823 65.9693Z" fill="#DAE2E8"/>
</g>
<path d="M12.4688 166.352C11.5 166.352 10.4375 166.211 9.28125 165.93C8.14062 165.648 7.05469 165.062 6.02344 164.172C4.99219 163.281 4.14844 161.945 3.49219 160.164C2.83594 158.367 2.50781 155.969 2.50781 152.969V138.789C2.50781 136.383 2.72656 134.383 3.16406 132.789C3.61719 131.18 4.20312 129.898 4.92188 128.945C5.65625 127.977 6.46094 127.258 7.33594 126.789C8.22656 126.305 9.10938 125.992 9.98438 125.852C10.875 125.695 11.6953 125.617 12.4453 125.617C14.5078 125.617 16.1406 126 17.3438 126.766C18.5469 127.531 19.4062 128.562 19.9219 129.859C20.4531 131.141 20.7188 132.555 20.7188 134.102C20.7188 134.961 20.6484 135.758 20.5078 136.492C20.3828 137.211 20.2344 138.008 20.0625 138.883H15.375V136.961C15.375 132.57 14.3438 130.375 12.2812 130.375C11.1719 130.375 10.3203 130.859 9.72656 131.828C9.14844 132.781 8.85938 134.539 8.85938 137.102V155.148C8.85938 157.633 9.14844 159.328 9.72656 160.234C10.3203 161.141 11.2344 161.594 12.4688 161.594C13.3281 161.594 14.0391 161.234 14.6016 160.516C15.1641 159.781 15.4453 158.609 15.4453 157V153.203H20.7656V156.906C20.7656 160.109 20.0547 162.484 18.6328 164.031C17.2109 165.578 15.1562 166.352 12.4688 166.352ZM34.1953 166.352C33.2266 166.352 32.1641 166.211 31.0078 165.93C29.8672 165.648 28.7812 165.062 27.75 164.172C26.7188 163.281 25.875 161.945 25.2188 160.164C24.5625 158.367 24.2344 155.969 24.2344 152.969V138.789C24.2344 136.383 24.4531 134.383 24.8906 132.789C25.3438 131.18 25.9297 129.898 26.6484 128.945C27.3828 127.977 28.1875 127.258 29.0625 126.789C29.9531 126.305 30.8438 125.992 31.7344 125.852C32.625 125.695 33.4453 125.617 34.1953 125.617C34.9141 125.617 35.7109 125.688 36.5859 125.828C37.4766 125.969 38.3594 126.273 39.2344 126.742C40.1094 127.195 40.9062 127.898 41.625 128.852C42.3594 129.805 42.9453 131.086 43.3828 132.695C43.8359 134.305 44.0625 136.336 44.0625 138.789V152.969C44.0625 155.938 43.7188 158.312 43.0312 160.094C42.3438 161.875 41.4766 163.219 40.4297 164.125C39.3828 165.016 38.2969 165.609 37.1719 165.906C36.0625 166.203 35.0703 166.352 34.1953 166.352ZM34.1953 161.594C35.3984 161.594 36.2891 161.141 36.8672 160.234C37.4453 159.328 37.7344 157.633 37.7344 155.148V137.102C37.7344 134.539 37.4453 132.781 36.8672 131.828C36.2891 130.859 35.3984 130.375 34.1953 130.375C32.9609 130.375 32.0469 130.859 31.4531 131.828C30.875 132.781 30.5859 134.539 30.5859 137.102V155.148C30.5859 157.633 30.875 159.328 31.4531 160.234C32.0469 161.141 32.9609 161.594 34.1953 161.594ZM50.0391 125.969H54.8438L64.6172 152.289H64.7578C64.6953 151.461 64.6094 150.539 64.5 149.523C64.4062 148.492 64.3203 147.258 64.2422 145.82C64.1641 144.383 64.125 142.633 64.125 140.57V125.969H69.5156V166H64.6641L54.9375 140.383H54.75C54.8281 141.32 54.9141 142.344 55.0078 143.453C55.1016 144.562 55.1875 145.961 55.2656 147.648C55.3438 149.336 55.3828 151.531 55.3828 154.234V166H50.0391V125.969ZM76.1484 125.969H91.4531V130.938H82.2188V142.727H89.4609V147.508H82.2188V166H76.1484V125.969ZM94.7109 125.969H110.016V130.75H100.781V142.727H108.023V147.508H100.781V161.219H110.016V166H94.7109V125.969ZM113.648 125.969H120.234C121.156 125.969 122.172 126.023 123.281 126.133C124.391 126.242 125.492 126.492 126.586 126.883C127.68 127.258 128.68 127.859 129.586 128.688C130.492 129.5 131.219 130.617 131.766 132.039C132.328 133.445 132.609 135.234 132.609 137.406V138.414C132.609 144.414 130.805 148.273 127.195 149.992L133.781 166H127.312L121.805 151.023H119.719V166H113.648V125.969ZM120.516 146.641C122.734 146.641 124.258 146.125 125.086 145.094C125.93 144.062 126.352 142.203 126.352 139.516V136.352C126.352 134.289 125.953 132.773 125.156 131.805C124.375 130.836 122.828 130.352 120.516 130.352H119.719V146.641H120.516ZM138.398 125.969H153.703V130.75H144.469V142.727H151.711V147.508H144.469V161.219H153.703V166H138.398V125.969ZM157.336 125.969H162.141L171.914 152.289H172.055C171.992 151.461 171.906 150.539 171.797 149.523C171.703 148.492 171.617 147.258 171.539 145.82C171.461 144.383 171.422 142.633 171.422 140.57V125.969H176.812V166H171.961L162.234 140.383H162.047C162.125 141.32 162.211 142.344 162.305 143.453C162.398 144.562 162.484 145.961 162.562 147.648C162.641 149.336 162.68 151.531 162.68 154.234V166H157.336V125.969ZM192.797 166.352C191.828 166.352 190.766 166.211 189.609 165.93C188.469 165.648 187.383 165.062 186.352 164.172C185.32 163.281 184.477 161.945 183.82 160.164C183.164 158.367 182.836 155.969 182.836 152.969V138.789C182.836 136.383 183.055 134.383 183.492 132.789C183.945 131.18 184.531 129.898 185.25 128.945C185.984 127.977 186.789 127.258 187.664 126.789C188.555 126.305 189.438 125.992 190.312 125.852C191.203 125.695 192.023 125.617 192.773 125.617C194.836 125.617 196.469 126 197.672 126.766C198.875 127.531 199.734 128.562 200.25 129.859C200.781 131.141 201.047 132.555 201.047 134.102C201.047 134.961 200.977 135.758 200.836 136.492C200.711 137.211 200.562 138.008 200.391 138.883H195.703V136.961C195.703 132.57 194.672 130.375 192.609 130.375C191.5 130.375 190.648 130.859 190.055 131.828C189.477 132.781 189.188 134.539 189.188 137.102V155.148C189.188 157.633 189.477 159.328 190.055 160.234C190.648 161.141 191.562 161.594 192.797 161.594C193.656 161.594 194.367 161.234 194.93 160.516C195.492 159.781 195.773 158.609 195.773 157V153.203H201.094V156.906C201.094 160.109 200.383 162.484 198.961 164.031C197.539 165.578 195.484 166.352 192.797 166.352ZM205.383 125.969H220.688V130.75H211.453V142.727H218.695V147.508H211.453V161.219H220.688V166H205.383V125.969ZM234.961 125.969H241.547C242.469 125.969 243.484 126.023 244.594 126.133C245.703 126.242 246.805 126.492 247.898 126.883C248.992 127.258 249.992 127.859 250.898 128.688C251.805 129.5 252.531 130.617 253.078 132.039C253.641 133.445 253.922 135.234 253.922 137.406V138.414C253.922 144.414 252.117 148.273 248.508 149.992L255.094 166H248.625L243.117 151.023H241.031V166H234.961V125.969ZM241.828 146.641C244.047 146.641 245.57 146.125 246.398 145.094C247.242 144.062 247.664 142.203 247.664 139.516V136.352C247.664 134.289 247.266 132.773 246.469 131.805C245.688 130.836 244.141 130.352 241.828 130.352H241.031V146.641H241.828ZM268.898 166.352C267.93 166.352 266.867 166.211 265.711 165.93C264.57 165.648 263.484 165.062 262.453 164.172C261.422 163.281 260.578 161.945 259.922 160.164C259.266 158.367 258.938 155.969 258.938 152.969V138.789C258.938 136.383 259.156 134.383 259.594 132.789C260.047 131.18 260.633 129.898 261.352 128.945C262.086 127.977 262.891 127.258 263.766 126.789C264.656 126.305 265.547 125.992 266.438 125.852C267.328 125.695 268.148 125.617 268.898 125.617C269.617 125.617 270.414 125.688 271.289 125.828C272.18 125.969 273.062 126.273 273.938 126.742C274.812 127.195 275.609 127.898 276.328 128.852C277.062 129.805 277.648 131.086 278.086 132.695C278.539 134.305 278.766 136.336 278.766 138.789V152.969C278.766 155.938 278.422 158.312 277.734 160.094C277.047 161.875 276.18 163.219 275.133 164.125C274.086 165.016 273 165.609 271.875 165.906C270.766 166.203 269.773 166.352 268.898 166.352ZM268.898 161.594C270.102 161.594 270.992 161.141 271.57 160.234C272.148 159.328 272.438 157.633 272.438 155.148V137.102C272.438 134.539 272.148 132.781 271.57 131.828C270.992 130.859 270.102 130.375 268.898 130.375C267.664 130.375 266.75 130.859 266.156 131.828C265.578 132.781 265.289 134.539 265.289 137.102V155.148C265.289 157.633 265.578 159.328 266.156 160.234C266.75 161.141 267.664 161.594 268.898 161.594ZM294.07 166.352C293.102 166.352 292.039 166.211 290.883 165.93C289.742 165.648 288.656 165.062 287.625 164.172C286.594 163.281 285.75 161.945 285.094 160.164C284.438 158.367 284.109 155.969 284.109 152.969V138.789C284.109 136.383 284.328 134.383 284.766 132.789C285.219 131.18 285.805 129.898 286.523 128.945C287.258 127.977 288.062 127.258 288.938 126.789C289.828 126.305 290.719 125.992 291.609 125.852C292.5 125.695 293.32 125.617 294.07 125.617C294.789 125.617 295.586 125.688 296.461 125.828C297.352 125.969 298.234 126.273 299.109 126.742C299.984 127.195 300.781 127.898 301.5 128.852C302.234 129.805 302.82 131.086 303.258 132.695C303.711 134.305 303.938 136.336 303.938 138.789V152.969C303.938 155.938 303.594 158.312 302.906 160.094C302.219 161.875 301.352 163.219 300.305 164.125C299.258 165.016 298.172 165.609 297.047 165.906C295.938 166.203 294.945 166.352 294.07 166.352ZM294.07 161.594C295.273 161.594 296.164 161.141 296.742 160.234C297.32 159.328 297.609 157.633 297.609 155.148V137.102C297.609 134.539 297.32 132.781 296.742 131.828C296.164 130.859 295.273 130.375 294.07 130.375C292.836 130.375 291.922 130.859 291.328 131.828C290.75 132.781 290.461 134.539 290.461 137.102V155.148C290.461 157.633 290.75 159.328 291.328 160.234C291.922 161.141 292.836 161.594 294.07 161.594ZM309.914 125.969H317.438L321.445 142.164C321.867 143.867 322.195 145.508 322.43 147.086C322.664 148.648 322.883 150.109 323.086 151.469H323.273C323.492 150.109 323.711 148.648 323.93 147.086C324.164 145.508 324.492 143.867 324.914 142.164L328.875 125.969H336.398V166H330.961V152.758C330.961 150.039 330.992 147.484 331.055 145.094C331.133 142.703 331.219 140.609 331.312 138.812C331.422 137.016 331.516 135.648 331.594 134.711H331.148L325.102 160.844H321.258L315.164 134.711H314.719C314.812 135.648 314.906 137.016 315 138.812C315.094 140.609 315.172 142.703 315.234 145.094C315.312 147.484 315.352 150.039 315.352 152.758V166H309.914V125.969ZM2.20312 179.312H6.29688C7.20312 179.312 8.14062 179.37 9.10938 179.484C10.0781 179.599 10.9792 179.854 11.8125 180.25C12.6458 180.635 13.3177 181.234 13.8281 182.047C14.349 182.859 14.6094 183.964 14.6094 185.359V186.656C14.6094 188.073 14.2708 189.229 13.5938 190.125C12.9271 191.01 12.1823 191.604 11.3594 191.906V192.031C12.5677 192.51 13.4844 193.198 14.1094 194.094C14.7344 194.99 15.0469 196.229 15.0469 197.812V199.172C15.0469 200.62 14.8125 201.797 14.3438 202.703C13.8854 203.599 13.2552 204.286 12.4531 204.766C11.651 205.245 10.7344 205.573 9.70312 205.75C8.67188 205.917 7.58854 206 6.45312 206H2.20312V179.312ZM6.95312 190.734C8.03646 190.734 8.90104 190.469 9.54688 189.938C10.1927 189.396 10.5156 188.5 10.5156 187.25V186.156C10.5156 184.917 10.2552 183.958 9.73438 183.281C9.21354 182.604 8.28646 182.266 6.95312 182.266H6.25V190.734H6.95312ZM7.32812 203.047C8.41146 203.047 9.27083 202.781 9.90625 202.25C10.5521 201.708 10.875 200.812 10.875 199.562V197.484C10.875 196.234 10.6146 195.276 10.0938 194.609C9.58333 193.932 8.66146 193.594 7.32812 193.594H6.25V203.047H7.32812ZM35.1009 206.234C34.455 206.234 33.7467 206.141 32.9759 205.953C32.2155 205.766 31.4915 205.375 30.804 204.781C30.1165 204.188 29.554 203.297 29.1165 202.109C28.679 200.911 28.4603 199.312 28.4603 197.312V187.859C28.4603 186.255 28.6061 184.922 28.8978 183.859C29.1998 182.786 29.5905 181.932 30.0696 181.297C30.5592 180.651 31.0957 180.172 31.679 179.859C32.2728 179.536 32.8665 179.328 33.4603 179.234C34.054 179.13 34.6009 179.078 35.1009 179.078C35.58 179.078 36.1113 179.125 36.6946 179.219C37.2884 179.312 37.8769 179.516 38.4603 179.828C39.0436 180.13 39.5748 180.599 40.054 181.234C40.5436 181.87 40.9342 182.724 41.2259 183.797C41.528 184.87 41.679 186.224 41.679 187.859V197.312C41.679 199.292 41.4498 200.875 40.9915 202.062C40.5332 203.25 39.955 204.146 39.2571 204.75C38.5592 205.344 37.8353 205.74 37.0853 205.938C36.3457 206.135 35.6842 206.234 35.1009 206.234ZM35.1009 203.062C35.903 203.062 36.4967 202.76 36.8821 202.156C37.2675 201.552 37.4603 200.422 37.4603 198.766V186.734C37.4603 185.026 37.2675 183.854 36.8821 183.219C36.4967 182.573 35.903 182.25 35.1009 182.25C34.278 182.25 33.6686 182.573 33.2728 183.219C32.8873 183.854 32.6946 185.026 32.6946 186.734V198.766C32.6946 200.422 32.8873 201.552 33.2728 202.156C33.6686 202.76 34.278 203.062 35.1009 203.062ZM62.1861 206.234C61.5403 206.234 60.832 206.141 60.0611 205.953C59.3007 205.766 58.5768 205.375 57.8893 204.781C57.2018 204.188 56.6393 203.297 56.2018 202.109C55.7643 200.911 55.5455 199.312 55.5455 197.312V187.859C55.5455 186.255 55.6913 184.922 55.983 183.859C56.2851 182.786 56.6757 181.932 57.1549 181.297C57.6445 180.651 58.1809 180.172 58.7643 179.859C59.358 179.536 59.9518 179.328 60.5455 179.234C61.1393 179.13 61.6861 179.078 62.1861 179.078C62.6653 179.078 63.1965 179.125 63.7799 179.219C64.3736 179.312 64.9622 179.516 65.5455 179.828C66.1288 180.13 66.6601 180.599 67.1393 181.234C67.6288 181.87 68.0195 182.724 68.3111 183.797C68.6132 184.87 68.7643 186.224 68.7643 187.859V197.312C68.7643 199.292 68.5351 200.875 68.0768 202.062C67.6184 203.25 67.0403 204.146 66.3424 204.75C65.6445 205.344 64.9205 205.74 64.1705 205.938C63.4309 206.135 62.7695 206.234 62.1861 206.234ZM62.1861 203.062C62.9882 203.062 63.582 202.76 63.9674 202.156C64.3528 201.552 64.5455 200.422 64.5455 198.766V186.734C64.5455 185.026 64.3528 183.854 63.9674 183.219C63.582 182.573 62.9882 182.25 62.1861 182.25C61.3632 182.25 60.7538 182.573 60.358 183.219C59.9726 183.854 59.7799 185.026 59.7799 186.734V198.766C59.7799 200.422 59.9726 201.552 60.358 202.156C60.7538 202.76 61.3632 203.062 62.1861 203.062ZM83.0526 179.312H87.0995V190.969H87.2245L91.8495 179.312H95.8808L90.7401 191.828L96.4589 206H92.1308L87.2245 193.297H87.0995V206H83.0526V179.312ZM108.982 179.312H113.029V206H108.982V179.312ZM127.754 179.312H130.957L137.473 196.859H137.567C137.525 196.307 137.468 195.693 137.395 195.016C137.332 194.328 137.275 193.505 137.223 192.547C137.171 191.589 137.145 190.422 137.145 189.047V179.312H140.739V206H137.504L131.02 188.922H130.895C130.947 189.547 131.004 190.229 131.067 190.969C131.129 191.708 131.187 192.641 131.239 193.766C131.291 194.891 131.317 196.354 131.317 198.156V206H127.754V179.312ZM161.027 206.25C160.652 206.25 160.204 206.193 159.683 206.078C159.173 205.964 158.647 205.74 158.105 205.406C157.574 205.073 157.074 204.578 156.605 203.922C156.147 203.266 155.772 202.401 155.48 201.328C155.199 200.255 155.058 198.917 155.058 197.312V187.859C155.058 186.255 155.209 184.922 155.512 183.859C155.814 182.786 156.209 181.932 156.699 181.297C157.199 180.651 157.751 180.172 158.355 179.859C158.959 179.536 159.564 179.328 160.168 179.234C160.772 179.13 161.329 179.078 161.84 179.078C163.288 179.078 164.433 179.333 165.277 179.844C166.131 180.354 166.741 181.042 167.105 181.906C167.48 182.76 167.668 183.703 167.668 184.734C167.668 185.307 167.626 185.839 167.543 186.328C167.459 186.807 167.36 187.339 167.246 187.922H164.121V186.641C164.121 183.714 163.324 182.25 161.73 182.25C160.876 182.25 160.256 182.573 159.871 183.219C159.485 183.854 159.293 185.026 159.293 186.734V198.766C159.293 200.422 159.491 201.557 159.887 202.172C160.282 202.776 160.907 203.078 161.762 203.078C162.657 203.078 163.308 202.646 163.715 201.781C164.121 200.906 164.324 199.828 164.324 198.547V195.141H162.246V192.484H168.199V206H165.574L165.137 203.453C164.762 204.193 164.209 204.844 163.48 205.406C162.751 205.969 161.933 206.25 161.027 206.25ZM198.01 200.594C198.01 200.021 198.041 199.49 198.104 199C198.177 198.51 198.281 197.99 198.416 197.438H201.557V198.625C201.557 200.062 201.776 201.167 202.213 201.938C202.651 202.698 203.323 203.078 204.229 203.078C205.791 203.078 206.573 202.312 206.573 200.781C206.573 200.188 206.442 199.562 206.182 198.906C205.932 198.25 205.437 197.448 204.698 196.5L200.479 191.203C199.739 190.245 199.161 189.286 198.745 188.328C198.338 187.37 198.135 186.302 198.135 185.125C198.135 183.354 198.682 181.906 199.776 180.781C200.88 179.646 202.406 179.078 204.354 179.078C205.927 179.078 207.161 179.365 208.057 179.938C208.953 180.5 209.583 181.214 209.948 182.078C210.323 182.943 210.51 183.828 210.51 184.734C210.51 185.307 210.463 185.839 210.37 186.328C210.286 186.807 210.187 187.339 210.073 187.922H206.948V186.641C206.948 185.234 206.724 184.151 206.276 183.391C205.828 182.63 205.187 182.25 204.354 182.25C203.593 182.25 203.015 182.464 202.62 182.891C202.234 183.307 202.041 183.87 202.041 184.578C202.041 185.182 202.166 185.734 202.416 186.234C202.666 186.724 202.984 187.229 203.37 187.75L208.073 193.719C208.937 194.833 209.593 195.896 210.041 196.906C210.5 197.906 210.729 199.021 210.729 200.25C210.729 202.094 210.14 203.557 208.963 204.641C207.786 205.714 206.218 206.25 204.26 206.25C202.656 206.25 201.396 205.979 200.479 205.438C199.573 204.885 198.932 204.177 198.557 203.312C198.192 202.448 198.01 201.542 198.01 200.594ZM227.048 196.641L221.83 179.312H225.908L229.002 192.188H229.189L232.283 179.312H236.345L231.095 196.641V206H227.048V196.641ZM247.524 200.594C247.524 200.021 247.556 199.49 247.618 199C247.691 198.51 247.795 197.99 247.931 197.438H251.071V198.625C251.071 200.062 251.29 201.167 251.727 201.938C252.165 202.698 252.837 203.078 253.743 203.078C255.306 203.078 256.087 202.312 256.087 200.781C256.087 200.188 255.957 199.562 255.696 198.906C255.446 198.25 254.951 197.448 254.212 196.5L249.993 191.203C249.254 190.245 248.675 189.286 248.259 188.328C247.852 187.37 247.649 186.302 247.649 185.125C247.649 183.354 248.196 181.906 249.29 180.781C250.394 179.646 251.92 179.078 253.868 179.078C255.441 179.078 256.675 179.365 257.571 179.938C258.467 180.5 259.097 181.214 259.462 182.078C259.837 182.943 260.024 183.828 260.024 184.734C260.024 185.307 259.977 185.839 259.884 186.328C259.8 186.807 259.701 187.339 259.587 187.922H256.462V186.641C256.462 185.234 256.238 184.151 255.79 183.391C255.342 182.63 254.701 182.25 253.868 182.25C253.108 182.25 252.53 182.464 252.134 182.891C251.748 183.307 251.556 183.87 251.556 184.578C251.556 185.182 251.681 185.734 251.931 186.234C252.181 186.724 252.498 187.229 252.884 187.75L257.587 193.719C258.451 194.833 259.108 195.896 259.556 196.906C260.014 197.906 260.243 199.021 260.243 200.25C260.243 202.094 259.655 203.557 258.477 204.641C257.3 205.714 255.733 206.25 253.774 206.25C252.17 206.25 250.91 205.979 249.993 205.438C249.087 204.885 248.446 204.177 248.071 203.312C247.707 202.448 247.524 201.542 247.524 200.594ZM275.953 182.5H271.656V179.312H284.281V182.5H280V206H275.953V182.5ZM296.757 179.312H306.961V182.5H300.804V190.484H305.632V193.672H300.804V202.812H306.961V206H296.757V179.312ZM319.686 179.312H324.702L327.374 190.109C327.655 191.245 327.874 192.339 328.03 193.391C328.186 194.432 328.332 195.406 328.468 196.312H328.593C328.738 195.406 328.884 194.432 329.03 193.391C329.186 192.339 329.405 191.245 329.686 190.109L332.327 179.312H337.343V206H333.718V197.172C333.718 195.359 333.738 193.656 333.78 192.062C333.832 190.469 333.889 189.073 333.952 187.875C334.025 186.677 334.087 185.766 334.139 185.141H333.843L329.811 202.562H327.249L323.186 185.141H322.889C322.952 185.766 323.014 186.677 323.077 187.875C323.139 189.073 323.192 190.469 323.233 192.062C323.285 193.656 323.311 195.359 323.311 197.172V206H319.686V179.312Z" fill="#FE7743"/>
<defs>
<clipPath id="clip0_135_4">
<rect width="106" height="106" fill="white" transform="translate(104)"/>
</clipPath>
</defs>
</svg>
